<svg version="1.1" id="Layer_1" xmlns="http://www.w3.org/2000/svg" xmlns:xlink="http://www.w3.org/1999/xlink" x="0px" y="0px"
	 width="100%" viewBox="0 0 348 348" enable-background="new 0 0 348 348" xml:space="preserve">
<path fill="#000000" opacity="1.000000" stroke="none" 
	d="
M193.000000,349.000000 
	C128.666672,349.000000 64.833359,349.000000 1.000026,349.000000 
	C1.000017,233.000031 1.000017,117.000061 1.000009,1.000072 
	C116.999947,1.000048 232.999893,1.000048 348.999878,1.000024 
	C348.999939,116.999931 348.999939,232.999863 348.999969,348.999878 
	C297.166656,349.000000 245.333328,349.000000 193.000000,349.000000 
M323.431641,123.554756 
	C322.860352,121.415604 322.583984,119.139221 321.664062,117.162300 
	C318.540985,110.451027 315.230347,103.825600 311.911377,97.207474 
	C310.016571,93.429123 308.202698,89.574516 305.901886,86.048187 
	C304.414398,83.768402 301.890778,82.187935 300.227966,79.993668 
	C297.912109,76.937683 296.546692,72.933205 293.754852,70.508926 
	C285.332977,63.195850 278.213318,54.354885 268.309265,48.726494 
	C266.230560,47.545189 265.061920,44.789711 262.999542,43.546566 
	C259.006744,41.139790 254.657806,39.329498 250.491180,37.203953 
	C245.653229,34.735935 241.070770,31.556896 235.990051,29.818850 
	C225.558121,26.250250 214.882584,23.385124 204.269318,20.363947 
	C202.558319,19.876894 200.544769,20.420280 198.855957,19.894043 
	C194.775497,18.622562 185.229767,17.669558 181.384048,17.828266 
	C176.591217,18.026062 171.774551,17.600172 166.966949,17.510626 
	C165.188019,17.477495 163.168533,17.111116 161.664307,17.792299 
	C153.656067,21.418745 144.569748,18.572962 136.444778,22.654566 
	C131.168945,25.304909 124.574699,25.198086 118.963531,27.349796 
	C112.963478,29.650625 107.394409,33.097363 101.691711,36.145874 
	C94.948288,39.750729 87.911018,42.953655 81.648109,47.269638 
	C74.873657,51.938137 68.531639,57.364868 62.608093,63.089104 
	C58.966370,66.608292 56.488857,71.324310 53.435047,75.463432 
	C52.088142,77.289024 50.594917,79.006027 49.191616,80.790802 
	C46.782825,83.854385 44.392467,86.932465 41.999954,90.000015 
	C41.999954,90.000015 42.003826,89.994919 41.428658,90.259308 
	C37.997387,97.392105 34.177612,104.368286 31.224360,111.693794 
	C26.597517,123.170639 20.661367,134.333099 20.862074,147.254181 
	C20.876833,148.204498 20.336689,149.160065 20.074799,150.118729 
	C19.392544,152.616180 18.238636,155.097504 18.138258,157.619705 
	C17.857065,164.685455 18.111565,171.770813 17.953886,178.843948 
	C17.876736,182.304840 16.793436,185.819534 17.177446,189.194733 
	C17.633850,193.206238 19.278048,197.070267 20.218420,201.042984 
	C20.939394,204.088821 21.366581,207.204193 21.925220,210.288498 
	C22.561823,213.803238 22.754292,217.475830 23.933981,220.797791 
	C26.044014,226.739624 28.277046,232.730026 31.306313,238.233536 
	C37.174995,248.895676 40.564796,260.957977 49.094337,270.128021 
	C55.268223,276.765533 61.464508,283.382233 67.616531,290.039917 
	C69.263664,291.822418 70.510315,294.098785 72.420670,295.489044 
	C76.631729,298.553650 81.167419,301.169159 85.536003,304.020996 
	C92.154099,308.341278 98.402534,313.400696 105.442505,316.851746 
	C112.065102,320.098114 119.519745,321.637451 126.584412,323.999329 
	C128.107925,324.508698 129.529190,325.323883 130.719009,326.099396 
	C130.813339,326.067078 130.907669,326.034760 131.790436,326.008270 
	C136.886948,327.100616 141.958649,328.331299 147.086166,329.250763 
	C153.719498,330.440308 160.365891,331.797028 167.065536,332.305176 
	C173.001831,332.755341 179.018707,332.143158 185.223404,332.430054 
	C185.583862,332.406830 185.944305,332.383636 186.304764,332.360443 
	C185.869843,332.240295 185.434921,332.120148 185.593109,331.441376 
	C199.509705,329.677063 213.595932,328.803101 226.697891,322.993378 
	C234.264832,319.638031 242.484573,317.838745 249.413559,312.925598 
	C253.062912,310.337982 257.191467,308.433197 261.058105,306.143127 
	C265.372833,303.587677 269.910431,301.296722 273.837524,298.232574 
	C277.187134,295.618988 279.720825,291.983826 282.772308,288.958801 
	C288.295410,283.483551 294.370728,278.497894 299.398315,272.610046 
	C303.988708,267.234253 307.612183,261.007568 311.420380,255.002747 
	C312.762451,252.886520 313.362122,250.305344 314.351135,247.957657 
	C315.344116,245.600555 316.317413,243.228729 317.458710,240.942917 
	C318.155640,239.546982 319.153198,238.301086 320.000610,236.999725 
	C320.000610,236.999725 319.989319,237.014923 320.537079,236.635834 
	C320.993958,234.406296 321.237671,232.106644 321.944183,229.959229 
	C325.216644,220.012695 328.507141,210.103104 329.726959,199.606140 
	C330.382904,193.961395 331.895874,188.419540 332.655701,182.781891 
	C332.955566,180.557053 332.002411,178.190491 332.068085,175.901337 
	C332.209961,170.959045 332.641785,166.025070 333.038086,159.777542 
	C332.169037,161.887100 331.797028,162.790161 331.425018,163.693207 
	C331.696838,163.571991 331.968658,163.450790 332.240479,163.329575 
	C329.509857,150.233109 326.779205,137.136627 324.347260,123.922775 
	C324.220154,123.934654 324.093018,123.946533 323.431641,123.554756 
M331.515381,196.339691 
	C331.515381,196.339691 331.408936,196.539764 331.408936,196.539764 
	C331.408936,196.539764 331.628052,196.505722 331.515381,196.339691 
z"/>
<path fill="#0A2D1F" opacity="1.000000" stroke="none" 
	d="
M185.296555,331.720673 
	C179.018707,332.143158 173.001831,332.755341 167.065536,332.305176 
	C160.365891,331.797028 153.719498,330.440308 147.086166,329.250763 
	C141.958649,328.331299 136.886948,327.100616 131.395218,326.004150 
	C131.000000,326.000000 130.997559,325.998199 130.997559,325.998199 
	C129.529190,325.323883 128.107925,324.508698 126.584412,323.999329 
	C119.519745,321.637451 112.065102,320.098114 105.442505,316.851746 
	C98.402534,313.400696 92.154099,308.341278 85.536003,304.020996 
	C81.167419,301.169159 76.631729,298.553650 72.420670,295.489044 
	C70.510315,294.098785 69.263664,291.822418 67.616531,290.039917 
	C61.464508,283.382233 55.268223,276.765533 49.094337,270.128021 
	C40.564796,260.957977 37.174995,248.895676 31.306313,238.233536 
	C28.277046,232.730026 26.044014,226.739624 23.933981,220.797791 
	C22.754292,217.475830 22.561823,213.803238 21.925220,210.288498 
	C21.366581,207.204193 20.939394,204.088821 20.218420,201.042984 
	C19.278048,197.070267 17.633850,193.206238 17.177446,189.194733 
	C16.793436,185.819534 17.876736,182.304840 17.953886,178.843948 
	C18.111565,171.770813 17.857065,164.685455 18.138258,157.619705 
	C18.238636,155.097504 19.392544,152.616180 20.074799,150.118729 
	C20.336689,149.160065 20.876833,148.204498 20.862074,147.254181 
	C20.661367,134.333099 26.597517,123.170639 31.224360,111.693794 
	C34.177612,104.368286 37.997387,97.392105 41.770233,90.259178 
	C42.194149,90.305023 42.276485,90.351006 42.358822,90.396988 
	C42.237335,90.266144 42.115852,90.135300 41.994370,90.004456 
	C44.392467,86.932465 46.782825,83.854385 49.191616,80.790802 
	C50.594917,79.006027 52.088142,77.289024 53.435047,75.463432 
	C56.488857,71.324310 58.966370,66.608292 62.608093,63.089104 
	C68.531639,57.364868 74.873657,51.938137 81.648109,47.269638 
	C87.911018,42.953655 94.948288,39.750729 101.691711,36.145874 
	C107.394409,33.097363 112.963478,29.650625 118.963531,27.349796 
	C124.574699,25.198086 131.168945,25.304909 136.444778,22.654566 
	C144.569748,18.572962 153.656067,21.418745 161.664307,17.792299 
	C163.168533,17.111116 165.188019,17.477495 166.966949,17.510626 
	C171.774551,17.600172 176.591217,18.026062 181.384048,17.828266 
	C185.229767,17.669558 194.775497,18.622562 198.855957,19.894043 
	C200.544769,20.420280 202.558319,19.876894 204.269318,20.363947 
	C214.882584,23.385124 225.558121,26.250250 235.990051,29.818850 
	C241.070770,31.556896 245.653229,34.735935 250.491180,37.203953 
	C254.657806,39.329498 259.006744,41.139790 262.999542,43.546566 
	C265.061920,44.789711 266.230560,47.545189 268.309265,48.726494 
	C278.213318,54.354885 285.332977,63.195850 293.754852,70.508926 
	C296.546692,72.933205 297.912109,76.937683 300.227966,79.993668 
	C301.890778,82.187935 304.414398,83.768402 305.901886,86.048187 
	C308.202698,89.574516 310.016571,93.429123 311.911377,97.207474 
	C315.230347,103.825600 318.540985,110.451027 321.664062,117.162300 
	C322.583984,119.139221 322.860352,121.415604 323.718262,123.778214 
	C324.004913,124.001663 324.048584,124.040161 324.048584,124.040161 
	C326.779205,137.136627 329.509857,150.233109 332.240479,163.329575 
	C331.968658,163.450790 331.696838,163.571991 331.425018,163.693207 
	C331.797028,162.790161 332.169037,161.887100 333.038086,159.777542 
	C332.641785,166.025070 332.209961,170.959045 332.068085,175.901337 
	C332.002411,178.190491 332.955566,180.557053 332.655701,182.781891 
	C331.895874,188.419540 330.382904,193.961395 329.726959,199.606140 
	C328.507141,210.103104 325.216644,220.012695 321.944183,229.959229 
	C321.237671,232.106644 320.993958,234.406296 320.207397,236.699585 
	C319.801514,236.717438 319.725281,236.671524 319.649078,236.625610 
	C319.771271,236.746338 319.893494,236.867065 320.015686,236.987793 
	C319.153198,238.301086 318.155640,239.546982 317.458710,240.942917 
	C316.317413,243.228729 315.344116,245.600555 314.351135,247.957657 
	C313.362122,250.305344 312.762451,252.886520 311.420380,255.002747 
	C307.612183,261.007568 303.988708,267.234253 299.398315,272.610046 
	C294.370728,278.497894 288.295410,283.483551 282.772308,288.958801 
	C279.720825,291.983826 277.187134,295.618988 273.837524,298.232574 
	C269.910431,301.296722 265.372833,303.587677 261.058105,306.143127 
	C257.191467,308.433197 253.062912,310.337982 249.413559,312.925598 
	C242.484573,317.838745 234.264832,319.638031 226.697891,322.993378 
	C213.595932,328.803101 199.509705,329.677063 185.296555,331.720673 
M177.706238,239.052017 
	C178.003937,239.043732 178.301620,239.035461 179.388916,239.532471 
	C180.641327,239.073654 181.893753,238.614853 183.481567,237.993576 
	C183.481567,237.993576 183.855438,237.986679 183.855438,237.986679 
	C183.855438,237.986679 184.213013,238.096100 184.805542,238.557510 
	C185.534851,238.161057 186.264160,237.764603 187.520508,236.963120 
	C187.694611,235.683716 187.868713,234.404312 188.900558,232.777054 
	C189.265305,231.393295 189.947296,230.009888 189.948898,228.625717 
	C190.004410,180.734894 190.011185,132.843979 189.914917,84.953293 
	C189.912262,83.636429 188.703705,82.321991 187.802505,80.457542 
	C187.526230,80.166039 187.249969,79.874527 186.665787,78.887497 
	C186.264832,78.618668 185.865433,78.117729 185.462677,78.114998 
	C175.811005,78.049538 166.158463,77.990700 156.507904,78.096710 
	C155.655029,78.106079 154.814682,79.254936 153.822189,80.464333 
	C153.736938,80.648079 153.651672,80.831825 152.871292,81.326180 
	C152.579849,83.060181 152.046600,84.792679 152.035889,86.528419 
	C151.961929,98.510376 151.998657,110.493011 151.996231,122.475426 
	C151.994949,128.752121 151.992966,128.717316 145.634491,128.477173 
	C145.109756,128.457367 144.550751,129.345657 143.076706,129.911316 
	C122.591370,129.129623 104.677757,134.644272 90.442932,151.051346 
	C89.100433,151.848175 87.025261,152.331039 86.528534,153.490280 
	C81.443069,165.358459 78.437454,177.797409 78.362923,190.713791 
	C78.343178,194.137070 80.543388,197.573135 81.982010,201.706085 
	C82.038208,202.451797 82.094406,203.197495 81.618393,204.382401 
	C82.413658,219.413834 92.380501,228.293106 103.403847,236.261154 
	C105.341362,237.661667 108.436455,237.460739 111.664978,238.302902 
	C116.700783,239.653610 121.277061,243.654297 127.683556,240.864365 
	C128.123032,240.957825 128.562500,241.051285 129.217621,241.886414 
	C133.834625,242.591553 138.433792,243.562302 143.077209,243.874374 
	C145.001373,244.003693 147.020233,242.723663 149.770096,241.859802 
	C150.841568,241.892609 151.913040,241.925415 153.443970,242.505447 
	C157.564804,244.120331 161.513443,244.385529 165.713531,240.781631 
	C166.452057,240.798416 167.190582,240.815186 168.408401,241.420319 
	C171.320236,240.664978 174.232056,239.909637 177.549652,239.444092 
	C177.549652,239.444092 177.292084,239.871063 177.762756,240.028976 
	C177.918930,240.035095 178.075089,240.041214 178.231262,240.047333 
	C177.929993,239.985275 177.628738,239.923218 177.706238,239.052017 
M221.640747,278.949615 
	C223.330536,277.192383 225.020340,275.435181 226.898758,273.899323 
	C226.898758,273.899323 226.675262,273.713226 227.400513,273.805298 
	C228.216324,273.312775 229.263611,273.001282 229.812332,272.299835 
	C235.635773,264.855560 239.453995,256.455902 240.924072,247.127106 
	C241.444061,243.827316 241.080826,240.388351 240.983337,236.343506 
	C241.049210,235.895493 241.115082,235.447479 241.857727,234.827896 
	C241.939331,231.623535 242.020935,228.419174 241.936508,224.852203 
	C241.823441,224.579651 241.855347,224.325333 242.845779,223.825394 
	C243.229507,222.216721 243.613235,220.608063 243.998505,218.062149 
	C243.999008,192.199951 244.008621,166.337738 243.984375,140.475571 
	C243.982208,138.170898 243.890198,135.846832 243.548218,133.575699 
	C243.463242,133.011368 242.239288,132.618515 241.217285,132.271942 
	C241.217285,132.271942 240.995346,132.007706 240.397156,131.426727 
	C232.656219,131.283920 224.915268,131.048767 217.174332,131.048279 
	C214.455124,131.048126 211.735870,131.623795 208.647812,132.152542 
	C208.290085,132.378159 207.932343,132.603775 206.822540,133.327591 
	C206.547699,134.586609 206.035263,135.845215 206.033005,137.104721 
	C205.986130,163.350342 205.981308,189.596085 206.040588,215.841644 
	C206.043716,217.231995 206.685303,218.620880 207.175629,220.676437 
	C207.095871,221.120483 207.016113,221.564529 206.496979,222.471100 
	C206.500870,222.878036 206.504776,223.284988 206.767273,223.656708 
	C206.767273,223.656708 206.861588,223.900040 206.179459,224.095596 
	C206.394669,224.632507 206.609879,225.169418 206.979156,226.455734 
	C204.978607,234.304031 202.978073,242.152328 200.277756,250.138885 
	C199.897156,251.153351 199.516556,252.167801 199.080002,253.082138 
	C199.080002,253.082138 199.185989,253.125946 198.420303,253.129135 
	C193.232437,253.933929 192.885956,258.626556 191.081543,262.080109 
	C191.081543,262.080109 191.191330,262.147919 190.457962,262.060455 
	C187.431213,261.105347 186.541168,262.412384 186.844910,265.769226 
	C186.281662,265.864655 185.718430,265.960052 184.496231,266.112732 
	C184.172714,266.586517 183.849197,267.060303 183.449692,267.495972 
	C183.449692,267.495972 183.439041,267.580322 182.653976,267.281952 
	C180.125519,267.934723 177.465439,268.301208 175.130539,269.374878 
	C174.135056,269.832611 173.819016,271.767914 173.194214,273.031799 
	C174.145981,273.303864 175.097748,273.575928 176.639557,273.884033 
	C177.108810,274.208282 177.578064,274.532532 178.295013,275.484222 
	C181.168686,280.659363 187.305862,279.791260 191.550461,282.572784 
	C195.476715,285.145721 200.000519,286.923157 204.445267,288.546967 
	C207.331894,289.601562 209.954422,288.601898 211.481934,284.871185 
	C212.025345,284.638855 212.568771,284.406525 213.841782,284.586700 
	C216.207138,282.689423 218.572495,280.792145 220.955048,278.984375 
	C220.955048,278.984375 220.885651,278.925232 221.640747,278.949615 
M242.669830,114.793808 
	C243.099396,114.157608 243.897842,113.524590 243.903351,112.884743 
	C243.989868,102.829987 244.029404,92.773575 243.886459,82.720299 
	C243.873856,81.832939 242.515625,80.964714 240.872803,80.055626 
	C229.912994,80.039581 218.953201,80.023529 207.223343,80.241386 
	C206.824173,80.901924 206.082581,81.559692 206.077225,82.223396 
	C205.996918,92.175697 205.958527,102.129517 206.093918,112.080490 
	C206.107269,113.061783 207.324997,114.026688 208.923096,114.996506 
	C219.903961,114.978378 230.884811,114.960251 242.669830,114.793808 
z"/>
<path fill="#0A2D1F" opacity="1.000000" stroke="none" 
	d="
M185.111694,332.215027 
	C185.434921,332.120148 185.869843,332.240295 186.304764,332.360443 
	C185.944305,332.383636 185.583862,332.406830 185.111694,332.215027 
z"/>
<path fill="#0A2D1F" opacity="1.000000" stroke="none" 
	d="
M331.571716,196.422699 
	C331.628052,196.505722 331.408936,196.539764 331.408936,196.539764 
	C331.408936,196.539764 331.515381,196.339691 331.571716,196.422699 
z"/>
<path fill="#0A2D1F" opacity="1.000000" stroke="none" 
	d="
M323.985413,123.980034 
	C324.093018,123.946533 324.220154,123.934654 324.197937,123.981468 
	C324.048584,124.040161 324.004913,124.001663 323.985413,123.980034 
z"/>
<path fill="#0A2D1F" opacity="1.000000" stroke="none" 
	d="
M131.000992,326.001221 
	C130.907669,326.034760 130.813339,326.067078 130.858276,326.048798 
	C130.997559,325.998199 131.000000,326.000000 131.000992,326.001221 
z"/>
<path fill="#FCFDFD" opacity="1.000000" stroke="none" 
	d="
M82.150604,203.943207 
	C82.094406,203.197495 82.038208,202.451797 81.832443,200.939163 
	C78.762375,182.624283 81.083481,166.095688 91.228325,151.088593 
	C104.677757,134.644272 122.591370,129.129623 143.958298,129.953186 
	C147.697693,130.367493 150.555496,130.739929 153.566422,131.132339 
	C153.566422,114.061081 153.566422,97.538322 153.566422,81.015564 
	C153.651672,80.831825 153.736938,80.648079 154.364471,80.128906 
	C165.595749,79.723328 176.284714,79.653183 186.973694,79.583031 
	C187.249969,79.874527 187.526230,80.166039 187.838654,81.192291 
	C187.868530,115.696815 187.841522,149.466614 187.864761,183.236374 
	C187.876205,199.865921 187.980530,216.495392 188.042816,233.124908 
	C187.868713,234.404312 187.694611,235.683716 186.966202,237.099319 
	C185.678940,237.522385 184.945984,237.809250 184.213013,238.096100 
	C184.213013,238.096100 183.855438,237.986679 183.855438,237.986679 
	C183.855438,237.986679 183.481567,237.993576 183.019897,238.012360 
	C181.238571,238.363144 179.918930,238.695160 178.599289,239.027161 
	C178.301620,239.035461 178.003937,239.043732 177.507690,239.426804 
	C177.309128,239.801590 177.292084,239.871063 177.292084,239.871063 
	C177.292084,239.871063 177.549652,239.444092 176.988724,239.250580 
	C173.594894,239.648697 170.762009,240.240341 167.929108,240.831970 
	C167.190582,240.815186 166.452057,240.798416 164.944397,240.842773 
	C160.445007,241.255325 156.714767,241.606766 152.984512,241.958206 
	C151.913040,241.925415 150.841568,241.892609 148.922882,241.912491 
	C141.717773,241.691696 135.359863,241.418213 129.001968,241.144730 
	C128.562500,241.051285 128.123032,240.957825 127.020088,240.714600 
	C121.254776,239.330841 116.152931,238.096817 110.853195,236.580353 
	C95.510941,230.484344 86.413864,219.343079 82.150604,203.943207 
M120.039864,168.021744 
	C119.842995,168.516754 119.646126,169.011765 119.714661,169.697891 
	C119.714661,169.697891 119.418114,169.559982 118.897812,170.023636 
	C117.761597,174.151443 115.930794,178.228226 115.623123,182.416901 
	C114.794853,193.693283 116.108795,204.449768 127.285622,210.887421 
	C134.761154,215.193192 143.029678,214.255295 151.113510,213.794662 
	C152.075638,213.739838 153.662277,211.329468 153.677292,209.996506 
	C153.858856,193.888474 153.828384,177.777557 153.725250,161.668198 
	C153.719437,160.761566 152.598755,159.862076 151.483688,158.568237 
	C150.654816,158.430344 149.825958,158.292435 148.199890,157.921570 
	C147.098907,157.802872 145.997910,157.684174 144.195663,157.315567 
	C143.474487,157.484329 142.753311,157.653091 141.176392,157.584274 
	C137.453461,158.397400 133.730515,159.210526 129.397522,160.011673 
	C128.546509,160.520462 127.695503,161.029251 126.226257,161.783188 
	C125.406349,162.494720 124.586441,163.206253 123.325836,164.009750 
	C123.037895,164.181427 122.901917,164.434692 122.350006,164.998917 
	C121.740295,165.808014 121.130585,166.617111 120.460426,167.526077 
	C120.460426,167.526077 120.393898,167.621994 120.039864,168.021744 
z"/>
<path fill="#FCFDFD" opacity="1.000000" stroke="none" 
	d="
M240.995346,132.007706 
	C240.995346,132.007706 241.217285,132.271942 241.524063,132.648407 
	C241.874146,134.855042 241.951126,136.685135 241.955719,138.515411 
	C242.022964,165.343246 242.080551,192.171082 242.055481,219.358475 
	C241.991119,221.175095 242.011688,222.632172 242.032257,224.089249 
	C241.855347,224.325333 241.823441,224.579651 241.851410,225.379654 
	C241.571198,228.937897 241.376068,231.968674 241.180954,234.999466 
	C241.115082,235.447479 241.049210,235.895493 240.952255,237.066513 
	C239.367920,251.031250 235.241165,263.252441 226.675262,273.713226 
	C226.675262,273.713226 226.898758,273.899323 226.506775,273.925446 
	C224.371765,275.609467 222.628708,277.267365 220.885651,278.925232 
	C220.885651,278.925232 220.955048,278.984375 220.606598,279.006531 
	C217.876160,280.743835 215.494171,282.459015 213.112183,284.174194 
	C212.568771,284.406525 212.025345,284.638855 210.876663,285.120483 
	C207.731781,287.471283 205.345596,287.548035 202.228394,285.985931 
	C194.300034,282.012848 186.124130,278.533661 178.047318,274.856781 
	C177.578064,274.532532 177.108810,274.208282 176.156647,273.592407 
	C178.262177,271.393982 180.850601,269.487152 183.439041,267.580322 
	C183.439041,267.580322 183.449692,267.495972 183.768585,267.429077 
	C184.443390,266.926605 184.799286,266.491028 185.155182,266.055481 
	C185.718430,265.960052 186.281662,265.864655 187.278229,265.400879 
	C188.871475,264.071014 190.031403,263.109467 191.191330,262.147919 
	C191.191330,262.147919 191.081543,262.080109 191.432663,262.035950 
	C194.251190,259.036530 196.718597,256.081238 199.186005,253.125946 
	C199.185989,253.125946 199.080002,253.082138 199.396255,252.988052 
	C200.134186,251.929520 200.555847,250.965073 200.977539,250.000626 
	C202.978073,242.152328 204.978607,234.304031 206.982483,225.784363 
	C206.944397,224.708679 206.902985,224.304352 206.861572,223.900040 
	C206.861588,223.900040 206.767273,223.656708 206.887939,223.473145 
	C206.984528,222.862595 206.960449,222.435577 206.936371,222.008575 
	C207.016113,221.564529 207.095871,221.120483 207.254318,219.909897 
	C207.413544,190.372040 207.494080,161.600708 207.574615,132.829391 
	C207.932343,132.603775 208.290085,132.378159 209.292282,132.132889 
	C220.289612,132.078064 230.642487,132.042892 240.995346,132.007706 
z"/>
<path fill="#FDFEFE" opacity="1.000000" stroke="none" 
	d="
M207.993393,80.007477 
	C218.953201,80.023529 229.912994,80.039581 241.390686,80.530434 
	C241.894287,92.317535 241.879990,103.629829 241.865677,114.942123 
	C230.884811,114.960251 219.903961,114.978378 208.359650,114.537689 
	C207.861938,102.721741 207.927673,91.364609 207.993393,80.007477 
z"/>
<path fill="#051C12" opacity="1.000000" stroke="none" 
	d="
M188.471680,232.950989 
	C187.980530,216.495392 187.876205,199.865921 187.864761,183.236374 
	C187.841522,149.466614 187.868530,115.696815 187.966141,81.466721 
	C188.703705,82.321991 189.912262,83.636429 189.914917,84.953293 
	C190.011185,132.843979 190.004410,180.734894 189.948898,228.625717 
	C189.947296,230.009888 189.265305,231.393295 188.471680,232.950989 
z"/>
<path fill="#072217" opacity="1.000000" stroke="none" 
	d="
M242.140427,218.998932 
	C242.080551,192.171082 242.022964,165.343246 241.955719,138.515411 
	C241.951126,136.685135 241.874146,134.855042 241.684860,132.585846 
	C242.239288,132.618515 243.463242,133.011368 243.548218,133.575699 
	C243.890198,135.846832 243.982208,138.170898 243.984375,140.475571 
	C244.008621,166.337738 243.999008,192.199951 243.688354,218.530869 
	C242.965607,218.999359 242.553024,218.999146 242.140427,218.998932 
z"/>
<path fill="#021A10" opacity="1.000000" stroke="none" 
	d="
M207.198578,133.078491 
	C207.494080,161.600708 207.413544,190.372040 207.181335,219.576904 
	C206.685303,218.620880 206.043716,217.231995 206.040588,215.841644 
	C205.981308,189.596085 205.986130,163.350342 206.033005,137.104721 
	C206.035263,135.845215 206.547699,134.586609 207.198578,133.078491 
z"/>
<path fill="#041C12" opacity="1.000000" stroke="none" 
	d="
M153.218857,81.170868 
	C153.566422,97.538322 153.566422,114.061081 153.566422,131.132339 
	C150.555496,130.739929 147.697693,130.367493 144.423767,129.903534 
	C144.550751,129.345657 145.109756,128.457367 145.634491,128.477173 
	C151.992966,128.717316 151.994949,128.752121 151.996231,122.475426 
	C151.998657,110.493011 151.961929,98.510376 152.035889,86.528419 
	C152.046600,84.792679 152.579849,83.060181 153.218857,81.170868 
z"/>
<path fill="#0E281E" opacity="1.000000" stroke="none" 
	d="
M81.884499,204.162811 
	C86.413864,219.343079 95.510941,230.484344 110.838524,236.864441 
	C111.013489,237.620438 111.005219,237.809906 110.996948,237.999390 
	C108.436455,237.460739 105.341362,237.661667 103.403847,236.261154 
	C92.380501,228.293106 82.413658,219.413834 81.884499,204.162811 
z"/>
<path fill="#0E281E" opacity="1.000000" stroke="none" 
	d="
M90.835632,151.069977 
	C81.083481,166.095688 78.762375,182.624283 81.703583,200.587799 
	C80.543388,197.573135 78.343178,194.137070 78.362923,190.713791 
	C78.437454,177.797409 81.443069,165.358459 86.528534,153.490280 
	C87.025261,152.331039 89.100433,151.848175 90.835632,151.069977 
z"/>
<path fill="#0C2419" opacity="1.000000" stroke="none" 
	d="
M227.037888,273.759277 
	C235.241165,263.252441 239.367920,251.031250 241.021011,237.401215 
	C241.080826,240.388351 241.444061,243.827316 240.924072,247.127106 
	C239.453995,256.455902 235.635773,264.855560 229.812332,272.299835 
	C229.263611,273.001282 228.216324,273.312775 227.037888,273.759277 
z"/>
<path fill="#0C2419" opacity="1.000000" stroke="none" 
	d="
M178.171173,275.170502 
	C186.124130,278.533661 194.300034,282.012848 202.228394,285.985931 
	C205.345596,287.548035 207.731781,287.471283 210.635483,285.304230 
	C209.954422,288.601898 207.331894,289.601562 204.445267,288.546967 
	C200.000519,286.923157 195.476715,285.145721 191.550461,282.572784 
	C187.305862,279.791260 181.168686,280.659363 178.171173,275.170502 
z"/>
<path fill="#072317" opacity="1.000000" stroke="none" 
	d="
M242.267761,114.867966 
	C241.879990,103.629829 241.894287,92.317535 241.845490,80.546425 
	C242.515625,80.964714 243.873856,81.832939 243.886459,82.720299 
	C244.029404,92.773575 243.989868,102.829987 243.903351,112.884743 
	C243.897842,113.524590 243.099396,114.157608 242.267761,114.867966 
z"/>
<path fill="#021A0F" opacity="1.000000" stroke="none" 
	d="
M207.608368,80.124435 
	C207.927673,91.364609 207.861938,102.721741 207.889969,114.539032 
	C207.324997,114.026688 206.107269,113.061783 206.093918,112.080490 
	C205.958527,102.129517 205.996918,92.175697 206.077225,82.223396 
	C206.082581,81.559692 206.824173,80.901924 207.608368,80.124435 
z"/>
<path fill="#02190F" opacity="1.000000" stroke="none" 
	d="
M186.819733,79.235268 
	C176.284714,79.653183 165.595749,79.723328 154.437653,79.834015 
	C154.814682,79.254936 155.655029,78.106079 156.507904,78.096710 
	C166.158463,77.990700 175.811005,78.049538 185.462677,78.114998 
	C185.865433,78.117729 186.264832,78.618668 186.819733,79.235268 
z"/>
<path fill="#0B241A" opacity="1.000000" stroke="none" 
	d="
M129.109802,241.515564 
	C135.359863,241.418213 141.717773,241.691696 148.535843,242.024872 
	C147.020233,242.723663 145.001373,244.003693 143.077209,243.874374 
	C138.433792,243.562302 133.834625,242.591553 129.109802,241.515564 
z"/>
<path fill="#02180F" opacity="1.000000" stroke="none" 
	d="
M240.696259,131.717224 
	C230.642487,132.042892 220.289612,132.078064 209.476700,132.024887 
	C211.735870,131.623795 214.455124,131.048126 217.174332,131.048279 
	C224.915268,131.048767 232.656219,131.283920 240.696259,131.717224 
z"/>
<path fill="#0C2419" opacity="1.000000" stroke="none" 
	d="
M183.046509,267.431152 
	C180.850601,269.487152 178.262177,271.393982 175.861633,273.574402 
	C175.097748,273.575928 174.145981,273.303864 173.194214,273.031799 
	C173.819016,271.767914 174.135056,269.832611 175.130539,269.374878 
	C177.465439,268.301208 180.125519,267.934723 183.046509,267.431152 
z"/>
<path fill="#0B241A" opacity="1.000000" stroke="none" 
	d="
M111.330963,238.151154 
	C111.005219,237.809906 111.013489,237.620438 111.036423,237.146896 
	C116.152931,238.096817 121.254776,239.330841 126.685074,240.764648 
	C121.277061,243.654297 116.700783,239.653610 111.330963,238.151154 
z"/>
<path fill="#0C2419" opacity="1.000000" stroke="none" 
	d="
M198.803162,253.127548 
	C196.718597,256.081238 194.251190,259.036530 191.461823,262.093506 
	C192.885956,258.626556 193.232437,253.933929 198.803162,253.127548 
z"/>
<path fill="#0B241A" opacity="1.000000" stroke="none" 
	d="
M153.214233,242.231827 
	C156.714767,241.606766 160.445007,241.255325 164.587769,240.967468 
	C161.513443,244.385529 157.564804,244.120331 153.214233,242.231827 
z"/>
<path fill="#0C2419" opacity="1.000000" stroke="none" 
	d="
M213.476990,284.380432 
	C215.494171,282.459015 217.876160,280.743835 220.597992,278.961731 
	C218.572495,280.792145 216.207138,282.689423 213.476990,284.380432 
z"/>
<path fill="#0C2419" opacity="1.000000" stroke="none" 
	d="
M241.519348,234.913681 
	C241.376068,231.968674 241.571198,228.937897 241.934418,225.560959 
	C242.020935,228.419174 241.939331,231.623535 241.519348,234.913681 
z"/>
<path fill="#0B241A" opacity="1.000000" stroke="none" 
	d="
M168.168762,241.126160 
	C170.762009,240.240341 173.594894,239.648697 176.785843,239.105667 
	C174.232056,239.909637 171.320236,240.664978 168.168762,241.126160 
z"/>
<path fill="#0C2419" opacity="1.000000" stroke="none" 
	d="
M221.263199,278.937439 
	C222.628708,277.267365 224.371765,275.609467 226.412476,273.814758 
	C225.020340,275.435181 223.330536,277.192383 221.263199,278.937439 
z"/>
<path fill="#0C2419" opacity="1.000000" stroke="none" 
	d="
M190.824646,262.104187 
	C190.031403,263.109467 188.871475,264.071014 187.400497,265.137390 
	C186.541168,262.412384 187.431213,261.105347 190.824646,262.104187 
z"/>
<path fill="#0C2419" opacity="1.000000" stroke="none" 
	d="
M242.055481,219.358475 
	C242.553024,218.999146 242.965607,218.999359 243.687576,218.999481 
	C243.613235,220.608063 243.229507,222.216721 242.439026,223.957321 
	C242.011688,222.632172 241.991119,221.175095 242.055481,219.358475 
z"/>
<path fill="#0B241A" opacity="1.000000" stroke="none" 
	d="
M178.994110,239.279816 
	C179.918930,238.695160 181.238571,238.363144 182.852203,238.093597 
	C181.893753,238.614853 180.641327,239.073654 178.994110,239.279816 
z"/>
<path fill="#0C2419" opacity="1.000000" stroke="none" 
	d="
M200.627640,250.069763 
	C200.555847,250.965073 200.134186,251.929520 199.424225,253.038116 
	C199.516556,252.167801 199.897156,251.153351 200.627640,250.069763 
z"/>
<path fill="#0B241A" opacity="1.000000" stroke="none" 
	d="
M184.509277,238.326813 
	C184.945984,237.809250 185.678940,237.522385 186.702682,237.301849 
	C186.264160,237.764603 185.534851,238.161057 184.509277,238.326813 
z"/>
<path fill="#0C2419" opacity="1.000000" stroke="none" 
	d="
M184.825699,266.084106 
	C184.799286,266.491028 184.443390,266.926605 183.806580,267.448120 
	C183.849197,267.060303 184.172714,266.586517 184.825699,266.084106 
z"/>
<path fill="#021A10" opacity="1.000000" stroke="none" 
	d="
M206.520508,223.997818 
	C206.902985,224.304352 206.944397,224.708679 206.905441,225.409668 
	C206.609879,225.169418 206.394669,224.632507 206.520508,223.997818 
z"/>
<path fill="#021A10" opacity="1.000000" stroke="none" 
	d="
M206.716675,222.239838 
	C206.960449,222.435577 206.984528,222.862595 206.758636,223.490753 
	C206.504776,223.284988 206.500870,222.878036 206.716675,222.239838 
z"/>
<path fill="#000000" opacity="1.000000" stroke="none" 
	d="
M320.008148,236.993744 
	C319.893494,236.867065 319.771271,236.746338 319.649078,236.625610 
	C319.725281,236.671524 319.801514,236.717438 319.933533,236.889130 
	C319.989319,237.014923 320.000610,236.999725 320.008148,236.993744 
z"/>
<path fill="#000000" opacity="1.000000" stroke="none" 
	d="
M41.997162,90.002235 
	C42.115852,90.135300 42.237335,90.266144 42.358822,90.396988 
	C42.276485,90.351006 42.194149,90.305023 42.057816,90.126984 
	C42.003826,89.994919 41.999954,90.000015 41.997162,90.002235 
z"/>
<path fill="#0B241A" opacity="1.000000" stroke="none" 
	d="
M177.527420,239.950012 
	C177.292084,239.871063 177.309128,239.801590 177.318298,239.831375 
	C177.628738,239.923218 177.929993,239.985275 178.231262,240.047333 
	C178.075089,240.041214 177.918930,240.035095 177.527420,239.950012 
z"/>
<path fill="#0A2D1F" opacity="1.000000" stroke="none" 
	d="
M126.844490,161.538025 
	C127.695503,161.029251 128.546509,160.520462 129.956009,160.282410 
	C134.353699,159.642700 138.192917,158.732269 142.032120,157.821838 
	C142.753311,157.653091 143.474487,157.484329 144.698898,157.747498 
	C146.467117,158.171143 147.732101,158.162842 148.997086,158.154541 
	C149.825958,158.292435 150.654816,158.430344 151.738708,159.235077 
	C151.994614,174.534515 151.995972,189.167114 151.996140,203.799728 
	C151.996216,211.040833 152.034882,211.282516 144.931870,212.448227 
	C138.087051,213.571548 125.529518,210.349274 121.308792,202.994370 
	C116.085098,193.891769 115.976059,184.503662 118.633919,174.734818 
	C119.088905,173.062531 119.166298,171.287537 119.418121,169.559982 
	C119.418114,169.559982 119.714661,169.697891 119.925232,169.572754 
	C120.221832,168.839081 120.307861,168.230545 120.393890,167.621994 
	C120.393898,167.621994 120.460426,167.526077 120.864594,167.584686 
	C121.818474,166.685379 122.368187,165.727478 122.917908,164.769562 
	C122.901917,164.434692 123.037895,164.181427 123.944077,163.976074 
	C125.323036,163.140945 126.083763,162.339493 126.844490,161.538025 
z"/>
<path fill="#0D231A" opacity="1.000000" stroke="none" 
	d="
M119.157967,169.791809 
	C119.166298,171.287537 119.088905,173.062531 118.633919,174.734818 
	C115.976059,184.503662 116.085098,193.891769 121.308792,202.994370 
	C125.529518,210.349274 138.087051,213.571548 144.931870,212.448227 
	C152.034882,211.282516 151.996216,211.040833 151.996140,203.799728 
	C151.995972,189.167114 151.994614,174.534515 151.995361,159.430573 
	C152.598755,159.862076 153.719437,160.761566 153.725250,161.668198 
	C153.828384,177.777557 153.858856,193.888474 153.677292,209.996506 
	C153.662277,211.329468 152.075638,213.739838 151.113510,213.794662 
	C143.029678,214.255295 134.761154,215.193192 127.285622,210.887421 
	C116.108795,204.449768 114.794853,193.693283 115.623123,182.416901 
	C115.930794,178.228226 117.761597,174.151443 119.157967,169.791809 
z"/>
<path fill="#0D231A" opacity="1.000000" stroke="none" 
	d="
M141.604248,157.703064 
	C138.192917,158.732269 134.353699,159.642700 130.261047,160.288391 
	C133.730515,159.210526 137.453461,158.397400 141.604248,157.703064 
z"/>
<path fill="#0D231A" opacity="1.000000" stroke="none" 
	d="
M148.598480,158.038055 
	C147.732101,158.162842 146.467117,158.171143 145.049530,157.872437 
	C145.997910,157.684174 147.098907,157.802872 148.598480,158.038055 
z"/>
<path fill="#0D231A" opacity="1.000000" stroke="none" 
	d="
M126.535370,161.660614 
	C126.083763,162.339493 125.323036,163.140945 124.164421,163.930115 
	C124.586441,163.206253 125.406349,162.494720 126.535370,161.660614 
z"/>
<path fill="#0D231A" opacity="1.000000" stroke="none" 
	d="
M122.633957,164.884247 
	C122.368187,165.727478 121.818474,166.685379 120.894821,167.534744 
	C121.130585,166.617111 121.740295,165.808014 122.633957,164.884247 
z"/>
<path fill="#0D231A" opacity="1.000000" stroke="none" 
	d="
M120.216873,167.821869 
	C120.307861,168.230545 120.221832,168.839081 119.792534,169.477203 
	C119.646126,169.011765 119.842995,168.516754 120.216873,167.821869 
z"/>
</svg>