<svg version="1.1" id="Layer_1" xmlns="http://www.w3.org/2000/svg" xmlns:xlink="http://www.w3.org/1999/xlink" x="0px" y="0px"
	 width="100%" viewBox="0 0 204 192" enable-background="new 0 0 204 192" xml:space="preserve">
<path fill="#000000" opacity="1.000000" stroke="none" 
	d="
M126.000000,193.000000 
	C84.026215,193.000000 42.552425,193.000000 1.039319,193.000000 
	C1.039319,129.066650 1.039319,65.133286 1.039319,1.099956 
	C68.890282,1.099956 136.780762,1.099956 204.835617,1.099956 
	C204.835617,64.999657 204.835617,128.999786 204.835617,193.000000 
	C178.800232,193.000000 152.650116,193.000000 126.000000,193.000000 
M186.020187,132.014786 
	C186.020187,132.014786 186.036041,132.008835 186.704330,131.745117 
	C187.172821,131.086441 187.870697,130.491669 188.074707,129.759323 
	C190.411423,121.370811 193.237122,113.060593 194.739349,104.519661 
	C195.615555,99.538025 194.342255,94.178322 193.968933,88.155472 
	C193.675613,84.862488 193.781250,81.474075 193.020309,78.292953 
	C189.616989,64.065666 182.800888,51.521862 172.551483,41.162941 
	C161.540100,30.033875 148.491669,22.701571 132.978683,18.610960 
	C119.474083,15.049940 106.694946,16.311167 93.716942,19.080969 
	C82.887985,21.392113 73.235184,26.915104 64.535088,33.420048 
	C58.990463,37.565685 55.033672,43.840282 50.384884,49.177673 
	C40.089050,60.998562 35.936913,75.139992 35.050686,90.432190 
	C34.329536,102.875908 37.380535,114.668030 41.028515,126.479980 
	C45.369808,140.536835 54.710873,150.764969 65.521812,159.664368 
	C74.987526,167.456375 86.242744,172.218018 98.388168,174.637375 
	C114.069427,177.761078 129.551117,176.551468 144.222855,170.650253 
	C152.365631,167.375122 160.232544,162.602859 167.050156,157.061462 
	C174.603455,150.922119 181.685867,143.804031 185.630203,133.827667 
	C185.758759,133.228790 185.887299,132.629898 186.020187,132.014786 
z"/>
<path fill="#FD6D3A" opacity="1.000000" stroke="none" 
	d="
M185.067947,134.104294 
	C181.685867,143.804031 174.603455,150.922119 167.050156,157.061462 
	C160.232544,162.602859 152.365631,167.375122 144.222855,170.650253 
	C129.551117,176.551468 114.069427,177.761078 98.388168,174.637375 
	C86.242744,172.218018 74.987526,167.456375 65.521812,159.664368 
	C54.710873,150.764969 45.369808,140.536835 41.028515,126.479980 
	C37.380535,114.668030 34.329536,102.875908 35.050686,90.432190 
	C35.936913,75.139992 40.089050,60.998562 50.384884,49.177673 
	C55.033672,43.840282 58.990463,37.565685 64.535088,33.420048 
	C73.235184,26.915104 82.887985,21.392113 93.716942,19.080969 
	C106.694946,16.311167 119.474083,15.049940 132.978683,18.610960 
	C148.491669,22.701571 161.540100,30.033875 172.551483,41.162941 
	C182.800888,51.521862 189.616989,64.065666 193.020309,78.292953 
	C193.781250,81.474075 193.675613,84.862488 193.775772,88.918846 
	C193.802902,104.278870 190.355286,118.221558 186.036041,132.008835 
	C186.036041,132.008835 186.020187,132.014786 185.812195,132.231964 
	C185.425461,133.000870 185.246704,133.552582 185.067947,134.104294 
M69.001831,136.998764 
	C69.001831,136.998764 69.071014,136.994263 68.617699,137.430420 
	C68.417435,138.019897 68.217163,138.609360 68.387764,139.879272 
	C71.532455,140.236908 74.677147,140.594543 78.471199,140.887772 
	C80.006653,140.253113 82.931587,139.265732 82.873192,139.035675 
	C81.601318,134.025330 86.084526,132.028625 88.381035,128.184570 
	C96.169792,123.378036 104.021622,118.668457 111.691795,113.679588 
	C113.150177,112.731026 113.889641,110.677124 115.285606,108.729431 
	C115.529282,108.485039 115.772949,108.240646 116.519035,108.101921 
	C116.683159,108.150421 116.847282,108.198914 117.237221,108.689751 
	C118.735573,108.042625 120.542526,107.730804 121.676231,106.687454 
	C125.562233,103.111122 129.357513,99.409126 132.889084,95.486504 
	C134.587158,93.600403 135.617569,91.113197 137.058578,88.457672 
	C137.058578,88.457672 137.210403,88.030212 137.523407,87.811684 
	C137.721237,87.647240 137.885452,87.454193 138.512756,87.022430 
	C138.715668,86.732735 138.918579,86.443039 139.742081,85.876663 
	C142.977966,82.934044 145.152771,79.735428 142.818069,74.967567 
	C146.013916,71.447037 143.553101,69.215279 141.743027,67.023209 
	C142.237350,67.027527 142.731689,67.031853 143.855606,67.364067 
	C147.087616,69.100388 150.207733,71.485817 154.758438,68.961166 
	C155.793015,68.301033 156.827576,67.640900 157.877838,66.885147 
	C157.877838,66.885147 157.974014,66.896812 158.541214,66.717545 
	C159.021469,66.122910 159.501724,65.528275 159.993240,64.994873 
	C159.993240,64.994873 159.932083,64.983192 160.552399,64.778625 
	C161.094086,63.184643 161.635773,61.590656 162.055664,59.180847 
	C162.048950,57.534573 162.042252,55.888294 162.300461,53.689426 
	C160.545135,52.088123 158.789795,50.486820 157.025742,48.533245 
	C157.025742,48.533245 157.035934,48.181015 156.703476,47.542419 
	C155.418121,47.045654 154.132767,46.548893 152.054276,45.994831 
	C141.730621,47.379807 137.798569,54.029823 140.954910,65.493134 
	C140.968735,65.994232 140.982559,66.495338 140.375244,66.843605 
	C139.270599,66.289627 138.165939,65.735649 136.371384,64.849670 
	C134.282532,65.098839 131.699463,64.654167 130.195938,65.725105 
	C125.364281,69.166626 120.931328,73.167892 115.530846,76.951584 
	C111.702301,77.257256 109.342873,79.130318 108.805420,83.628372 
	C108.257111,84.069687 107.708801,84.511009 106.412315,85.007851 
	C100.108360,88.724197 95.515747,94.076546 91.507339,100.208801 
	C96.087280,99.471962 101.604607,102.139206 104.715279,96.044685 
	C105.485603,96.002106 106.255920,95.959534 106.977226,96.670380 
	C106.007851,98.889519 105.038483,101.108665 104.003479,103.449013 
	C104.003479,103.449013 104.084595,103.560608 104.062920,104.409744 
	C104.060654,104.975929 104.058395,105.542107 103.670387,106.732773 
	C101.792992,107.180275 99.915588,107.627777 97.705017,107.979721 
	C97.488045,108.347397 97.271072,108.715065 97.033524,109.017242 
	C97.033524,109.017242 97.096954,109.043518 96.406227,109.137154 
	C94.617844,111.121346 92.829468,113.105530 91.015503,115.029922 
	C91.015503,115.029922 91.080376,115.034744 90.493462,115.206413 
	C90.013130,115.812721 89.532799,116.419037 89.030884,117.029579 
	C89.030884,117.029579 89.027267,117.051262 88.445595,117.230797 
	C87.973862,117.850380 87.502121,118.469963 87.028107,119.022568 
	C87.028107,119.022568 87.094154,119.033905 86.408714,119.145485 
	C84.285942,121.454460 82.163170,123.763435 80.007118,126.019638 
	C80.007118,126.019638 80.069397,126.015732 79.629852,126.269310 
	C79.424194,126.534355 79.218536,126.799408 79.013451,127.003662 
	C79.013451,127.003662 79.064880,127.036079 78.379898,127.135490 
	C75.597641,130.108429 72.815376,133.081360 70.004021,136.004410 
	C70.004021,136.004410 70.061699,136.003952 69.627594,136.269241 
	C69.421494,136.535385 69.215393,136.801544 69.001831,136.998764 
z"/>
<path fill="#E1683C" opacity="1.000000" stroke="none" 
	d="
M186.370178,131.876984 
	C190.355286,118.221558 193.802902,104.278870 193.809326,89.335464 
	C194.342255,94.178322 195.615555,99.538025 194.739349,104.519661 
	C193.237122,113.060593 190.411423,121.370811 188.074707,129.759323 
	C187.870697,130.491669 187.172821,131.086441 186.370178,131.876984 
z"/>
<path fill="#E1683C" opacity="1.000000" stroke="none" 
	d="
M185.349075,133.965973 
	C185.246704,133.552582 185.425461,133.000870 185.810028,132.240082 
	C185.887299,132.629898 185.758759,133.228790 185.349075,133.965973 
z"/>
<path fill="#000000" opacity="1.000000" stroke="none" 
	d="
M114.960808,109.133217 
	C113.889641,110.677124 113.150177,112.731026 111.691795,113.679588 
	C104.021622,118.668457 96.169792,123.378036 87.815216,128.542908 
	C82.478600,129.952545 80.158165,132.929550 80.945572,139.527054 
	C78.356987,136.386230 76.852455,134.560715 75.406746,132.806580 
	C76.507385,131.070389 77.786133,129.053238 79.064880,127.036079 
	C79.064880,127.036079 79.013451,127.003662 79.279579,126.968781 
	C79.720268,126.627846 79.894829,126.321785 80.069397,126.015732 
	C80.069397,126.015732 80.007118,126.019638 80.378326,126.029449 
	C82.864410,123.704132 84.979279,121.369019 87.094147,119.033905 
	C87.094154,119.033905 87.028107,119.022568 87.304962,118.942459 
	C88.063637,118.258659 88.545456,117.654961 89.027267,117.051262 
	C89.027267,117.051262 89.030884,117.029579 89.319489,116.932129 
	C90.098846,116.234695 90.589607,115.634720 91.080368,115.034744 
	C91.080376,115.034744 91.015503,115.029922 91.385201,115.048935 
	C93.535583,113.059807 95.316269,111.051666 97.096954,109.043518 
	C97.096954,109.043518 97.033524,109.017242 97.281952,108.965408 
	C97.699654,108.634140 97.868919,108.354706 98.038193,108.075272 
	C99.915588,107.627777 101.792992,107.180275 104.261536,106.382843 
	C105.912804,105.941902 106.972916,105.850899 108.404778,105.828445 
	C110.837952,106.975739 112.899376,108.054474 114.960808,109.133217 
z"/>
<path fill="#000000" opacity="1.000000" stroke="none" 
	d="
M116.344589,76.953262 
	C120.931328,73.167892 125.364281,69.166626 130.195938,65.725105 
	C131.699463,64.654167 134.282532,65.098839 136.686737,65.290520 
	C136.971634,66.103241 136.941193,66.475113 136.571472,66.926033 
	C126.496880,76.642372 116.761566,86.279671 107.026245,95.916962 
	C106.255920,95.959534 105.485603,96.002106 104.233139,95.676796 
	C102.793190,94.249809 101.835396,93.190704 100.788116,92.032661 
	C103.041824,89.528580 105.101166,87.240456 107.160500,84.952332 
	C107.708801,84.511009 108.257111,84.069687 109.198807,83.230896 
	C111.842987,80.873367 114.093788,78.913315 116.344589,76.953262 
z"/>
<path fill="#000000" opacity="1.000000" stroke="none" 
	d="
M157.035934,48.181015 
	C157.035934,48.181015 157.025742,48.533245 156.715393,48.854218 
	C154.275970,51.263371 152.116089,53.321251 150.024536,55.446377 
	C146.275375,59.255733 146.557846,61.996574 150.795670,65.450508 
	C152.068161,66.487633 153.036301,67.898209 154.143875,69.137703 
	C150.207733,71.485817 147.087616,69.100388 143.407028,66.896164 
	C142.291229,65.865227 141.623993,65.302208 140.956772,64.739182 
	C137.798569,54.029823 141.730621,47.379807 152.590179,46.359035 
	C154.429367,47.209167 155.732651,47.695091 157.035934,48.181015 
z"/>
<path fill="#E7815C" opacity="1.000000" stroke="none" 
	d="
M142.288727,75.321129 
	C145.152771,79.735428 142.977966,82.934044 139.347870,85.616219 
	C139.302505,84.171852 139.651367,82.987930 140.276047,80.867943 
	C130.710907,89.040405 121.888618,96.578156 112.955841,103.816849 
	C112.229027,102.975792 111.612717,102.433800 110.998123,101.716660 
	C110.999855,101.541496 111.001869,101.191162 111.309792,101.035156 
	C118.280029,94.867661 124.879608,88.784485 131.631775,82.875664 
	C134.885864,80.028030 138.427399,77.508888 141.951599,74.960724 
	C142.064423,75.080437 142.288727,75.321129 142.288727,75.321129 
M139.987625,80.818352 
	C140.424240,80.869530 140.860855,80.920708 141.297470,80.971878 
	C140.992233,80.711487 140.686996,80.451096 139.987625,80.818352 
z"/>
<path fill="#E37F5C" opacity="1.000000" stroke="none" 
	d="
M111.001869,101.191162 
	C111.001869,101.191162 110.999855,101.541496 110.630585,101.739395 
	C109.771339,101.966583 109.281364,101.995888 108.454376,102.048172 
	C107.062965,102.501869 106.008575,102.932587 104.734055,103.326271 
	C104.513908,103.289238 104.069107,103.327805 104.069107,103.327805 
	C105.038483,101.108665 106.007851,98.889519 107.001740,96.293671 
	C116.761566,86.279671 126.496880,76.642372 136.708954,67.195068 
	C137.463470,67.922058 137.741211,68.459061 137.911316,69.317169 
	C134.304749,72.866959 130.732773,76.020630 127.323273,79.341125 
	C121.547836,84.965790 115.932587,90.755501 110.130959,96.352432 
	C107.776863,98.623466 106.776077,100.279251 111.001869,101.191162 
z"/>
<path fill="#000000" opacity="1.000000" stroke="none" 
	d="
M113.066338,104.115906 
	C121.888618,96.578156 130.710907,89.040405 140.276047,80.867943 
	C139.651367,82.987930 139.302505,84.171852 139.037567,85.754562 
	C138.918579,86.443039 138.715668,86.732735 138.005554,87.078934 
	C137.402359,87.433685 137.306381,87.731949 137.210403,88.030212 
	C137.210403,88.030212 137.058578,88.457672 136.640259,88.696419 
	C129.818420,95.372581 123.414909,101.809998 117.011398,108.247414 
	C116.847282,108.198914 116.683159,108.150421 116.165359,107.754608 
	C114.896576,106.310165 113.981461,105.213036 113.066338,104.115906 
z"/>
<path fill="#000000" opacity="1.000000" stroke="none" 
	d="
M162.035538,54.242020 
	C162.042252,55.888294 162.048950,57.534573 161.957245,59.903816 
	C161.216568,62.078926 160.574326,63.531059 159.932083,64.983192 
	C159.932083,64.983192 159.993240,64.994873 159.710480,65.062698 
	C158.943146,65.719292 158.458588,66.308052 157.974014,66.896812 
	C157.974014,66.896812 157.877838,66.885147 157.522705,66.931702 
	C155.055069,64.679054 152.942566,62.379845 150.956696,60.218460 
	C153.993134,57.108070 156.793625,54.239368 158.659134,52.328407 
	C159.778656,52.962902 160.907089,53.602459 162.035538,54.242020 
M159.957489,58.860947 
	C159.766235,58.537430 159.574982,58.213909 159.383728,57.890392 
	C159.389740,58.767101 159.395737,59.643806 159.401749,60.520519 
	C159.590240,60.182407 159.778717,59.844299 159.957489,58.860947 
z"/>
<path fill="#EB8561" opacity="1.000000" stroke="none" 
	d="
M106.786407,84.980087 
	C105.101166,87.240456 103.041824,89.528580 100.788116,92.032661 
	C101.835396,93.190704 102.793190,94.249809 103.850296,95.623489 
	C101.604607,102.139206 96.087280,99.471962 91.507339,100.208801 
	C95.515747,94.076546 100.108360,88.724197 106.786407,84.980087 
z"/>
<path fill="#E3825D" opacity="1.000000" stroke="none" 
	d="
M162.167999,53.965721 
	C160.907089,53.602459 159.778656,52.962902 158.659134,52.328407 
	C156.793625,54.239368 153.993134,57.108070 150.956696,60.218460 
	C152.942566,62.379845 155.055069,64.679054 157.514862,66.979515 
	C156.827576,67.640900 155.793015,68.301033 154.451157,69.049438 
	C153.036301,67.898209 152.068161,66.487633 150.795670,65.450508 
	C146.557846,61.996574 146.275375,59.255733 150.024536,55.446377 
	C152.116089,53.321251 154.275970,51.263371 156.719757,49.030350 
	C158.789795,50.486820 160.545135,52.088123 162.167999,53.965721 
z"/>
<path fill="#E27650" opacity="1.000000" stroke="none" 
	d="
M78.722389,127.085785 
	C77.786133,129.053238 76.507385,131.070389 75.406746,132.806580 
	C76.852455,134.560715 78.356987,136.386230 80.945572,139.527054 
	C80.158165,132.929550 82.478600,129.952545 87.625862,128.825836 
	C86.084526,132.028625 81.601318,134.025330 82.873192,139.035675 
	C82.931587,139.265732 80.006653,140.253113 78.206528,140.570419 
	C76.272743,137.031815 73.840286,135.248352 70.033119,136.054291 
	C72.815376,133.081360 75.597641,130.108429 78.722389,127.085785 
z"/>
<path fill="#EB6D41" opacity="1.000000" stroke="none" 
	d="
M117.124313,108.468582 
	C123.414909,101.809998 129.818420,95.372581 136.586136,88.916687 
	C135.617569,91.113197 134.587158,93.600403 132.889084,95.486504 
	C129.357513,99.409126 125.562233,103.111122 121.676231,106.687454 
	C120.542526,107.730804 118.735573,108.042625 117.124313,108.468582 
z"/>
<path fill="#000000" opacity="1.000000" stroke="none" 
	d="
M70.018570,136.029358 
	C73.840286,135.248352 76.272743,137.031815 77.881851,140.602631 
	C74.677147,140.594543 71.532455,140.236908 68.495514,139.380463 
	C68.759186,138.252518 68.915100,137.623398 69.071014,136.994263 
	C69.071014,136.994263 69.001831,136.998764 69.272896,136.964951 
	C69.716537,136.622070 69.889122,136.313019 70.061699,136.003952 
	C70.061699,136.003952 70.004021,136.004410 70.018570,136.029358 
z"/>
<path fill="#EB6D41" opacity="1.000000" stroke="none" 
	d="
M112.955841,103.816841 
	C113.981461,105.213036 114.896576,106.310165 115.914154,107.701775 
	C115.772949,108.240646 115.529282,108.485039 115.123207,108.931320 
	C112.899376,108.054474 110.837952,106.975739 108.401649,105.622299 
	C108.002464,105.073677 107.987282,104.799255 108.192978,104.256935 
	C108.533630,103.334763 108.662514,102.679970 108.791389,102.025185 
	C109.281364,101.995888 109.771339,101.966583 110.628860,101.914551 
	C111.612717,102.433800 112.229027,102.975792 112.955841,103.816841 
z"/>
<path fill="#E7815C" opacity="1.000000" stroke="none" 
	d="
M138.018951,68.996071 
	C137.741211,68.459061 137.463470,67.922058 137.048233,67.116020 
	C136.941193,66.475113 136.971634,66.103241 137.031677,65.456520 
	C138.165939,65.735649 139.270599,66.289627 140.687622,66.921799 
	C141.000000,67.000000 141.003647,67.003716 141.003647,67.003716 
	C143.553101,69.215279 146.013916,71.447037 142.553406,75.144348 
	C142.288727,75.321129 142.064423,75.080437 141.990601,74.596565 
	C143.765533,70.008995 142.147171,68.546524 138.018951,68.996071 
z"/>
<path fill="#E27650" opacity="1.000000" stroke="none" 
	d="
M86.751434,119.089691 
	C84.979279,121.369019 82.864410,123.704132 80.394974,126.055832 
	C82.163170,123.763435 84.285942,121.454460 86.751434,119.089691 
z"/>
<path fill="#EB8561" opacity="1.000000" stroke="none" 
	d="
M115.937721,76.952423 
	C114.093788,78.913315 111.842987,80.873367 109.275658,82.972328 
	C109.342873,79.130318 111.702301,77.257256 115.937721,76.952423 
z"/>
<path fill="#E27650" opacity="1.000000" stroke="none" 
	d="
M96.751595,109.090332 
	C95.316269,111.051666 93.535583,113.059807 91.397995,115.078835 
	C92.829468,113.105530 94.617844,111.121346 96.751595,109.090332 
z"/>
<path fill="#E3825D" opacity="1.000000" stroke="none" 
	d="
M160.242249,64.880905 
	C160.574326,63.531059 161.216568,62.078926 162.018127,60.311729 
	C161.635773,61.590656 161.094086,63.184643 160.242249,64.880905 
z"/>
<path fill="#CF6339" opacity="1.000000" stroke="none" 
	d="
M107.981216,104.524323 
	C107.987282,104.799255 108.002464,105.073677 108.029907,105.553741 
	C106.972916,105.850899 105.912804,105.941902 104.454407,106.070602 
	C104.058395,105.542107 104.060654,104.975929 104.293045,103.907333 
	C104.523163,103.404930 104.944016,103.603477 105.244400,103.885841 
	C106.356926,104.286911 107.169075,104.405617 107.981216,104.524323 
z"/>
<path fill="#E3825D" opacity="1.000000" stroke="none" 
	d="
M156.869705,47.861717 
	C155.732651,47.695091 154.429367,47.209167 152.986755,46.387684 
	C154.132767,46.548893 155.418121,47.045654 156.869705,47.861717 
z"/>
<path fill="#E3825D" opacity="1.000000" stroke="none" 
	d="
M158.257614,66.807175 
	C158.458588,66.308052 158.943146,65.719292 159.704849,65.032089 
	C159.501724,65.528275 159.021469,66.122910 158.257614,66.807175 
z"/>
<path fill="#E27650" opacity="1.000000" stroke="none" 
	d="
M90.786911,115.120575 
	C90.589607,115.634720 90.098846,116.234695 89.330276,116.930008 
	C89.532799,116.419037 90.013130,115.812721 90.786911,115.120575 
z"/>
<path fill="#E27650" opacity="1.000000" stroke="none" 
	d="
M88.736435,117.141029 
	C88.545456,117.654961 88.063637,118.258659 87.306107,118.975952 
	C87.502121,118.469963 87.973862,117.850380 88.736435,117.141029 
z"/>
<path fill="#E7815C" opacity="1.000000" stroke="none" 
	d="
M140.955841,65.116158 
	C141.623993,65.302208 142.291229,65.865227 143.092224,66.732208 
	C142.731689,67.031853 142.237350,67.027527 141.373337,67.013458 
	C141.003647,67.003716 141.000000,67.000000 140.998199,66.998215 
	C140.982559,66.495338 140.968735,65.994232 140.955841,65.116158 
z"/>
<path fill="#E27650" opacity="1.000000" stroke="none" 
	d="
M97.871597,108.027496 
	C97.868919,108.354706 97.699654,108.634140 97.292252,108.998154 
	C97.271072,108.715065 97.488045,108.347397 97.871597,108.027496 
z"/>
<path fill="#E27650" opacity="1.000000" stroke="none" 
	d="
M68.844360,137.212341 
	C68.915100,137.623398 68.759186,138.252518 68.310089,139.040253 
	C68.217163,138.609360 68.417435,138.019897 68.844360,137.212341 
z"/>
<path fill="#EB6D41" opacity="1.000000" stroke="none" 
	d="
M104.944016,103.603477 
	C104.944016,103.603477 104.523163,103.404930 104.303879,103.482773 
	C104.084595,103.560608 104.003479,103.449013 104.036293,103.388412 
	C104.069107,103.327805 104.513908,103.289238 104.733955,103.386269 
	C104.954002,103.483299 104.944016,103.603477 104.944016,103.603477 
z"/>
<path fill="#E27650" opacity="1.000000" stroke="none" 
	d="
M79.849625,126.142517 
	C79.894829,126.321785 79.720268,126.627846 79.279297,126.999184 
	C79.218536,126.799408 79.424194,126.534355 79.849625,126.142517 
z"/>
<path fill="#EB6D41" opacity="1.000000" stroke="none" 
	d="
M137.366913,87.920944 
	C137.306381,87.731949 137.402359,87.433685 137.757172,87.183990 
	C137.885452,87.454193 137.721237,87.647240 137.366913,87.920944 
z"/>
<path fill="#E27650" opacity="1.000000" stroke="none" 
	d="
M69.844650,136.136597 
	C69.889122,136.313019 69.716537,136.622070 69.276627,136.999420 
	C69.215393,136.801544 69.421494,136.535385 69.844650,136.136597 
z"/>
<path fill="#000000" opacity="1.000000" stroke="none" 
	d="
M137.911316,69.317169 
	C142.147171,68.546524 143.765533,70.008995 141.877777,74.476852 
	C138.427399,77.508888 134.885864,80.028030 131.631775,82.875664 
	C124.879608,88.784485 118.280029,94.867661 111.309792,101.035156 
	C106.776077,100.279251 107.776863,98.623466 110.130959,96.352432 
	C115.932587,90.755501 121.547836,84.965790 127.323273,79.341125 
	C130.732773,76.020630 134.304749,72.866959 137.911316,69.317169 
z"/>
<path fill="#000000" opacity="1.000000" stroke="none" 
	d="
M140.184692,80.504524 
	C140.686996,80.451096 140.992233,80.711487 141.297470,80.971878 
	C140.860855,80.920708 140.424240,80.869530 140.184692,80.504524 
z"/>
<path fill="#F28F71" opacity="1.000000" stroke="none" 
	d="
M105.244400,103.885841 
	C104.944016,103.603477 104.954002,103.483299 104.954102,103.423302 
	C106.008575,102.932587 107.062965,102.501869 108.454376,102.048172 
	C108.662514,102.679970 108.533630,103.334763 108.192978,104.256935 
	C107.169075,104.405617 106.356926,104.286911 105.244400,103.885841 
z"/>
<path fill="#CC8570" opacity="1.000000" stroke="none" 
	d="
M159.962341,59.183571 
	C159.778717,59.844299 159.590240,60.182407 159.401749,60.520515 
	C159.395737,59.643806 159.389740,58.767101 159.383728,57.890392 
	C159.574982,58.213909 159.766235,58.537430 159.962341,59.183571 
z"/>
</svg>