<svg version="1.1" id="Layer_1" xmlns="http://www.w3.org/2000/svg" xmlns:xlink="http://www.w3.org/1999/xlink" x="0px" y="0px"
	 width="100%" viewBox="0 0 204 192" enable-background="new 0 0 204 192" xml:space="preserve">
<path fill="#010101" opacity="1.000000" stroke="none" 
	d="
M152.000000,1.000003 
	C169.655426,1.000000 187.310852,1.000000 204.966278,1.000000 
	C204.977524,1.155319 204.998611,1.310637 204.998611,1.465956 
	C205.000031,65.258675 205.000000,129.051392 205.000000,192.922058 
	C137.095322,192.922058 69.190514,192.922058 1.142858,192.922058 
	C1.142858,129.000229 1.142858,65.000160 1.142858,1.000000 
	C16.415421,1.000000 31.739052,1.000000 47.953716,1.256454 
	C47.575199,2.302871 46.386570,3.290344 45.022373,3.849305 
	C38.395630,6.564510 32.991451,10.874395 31.064430,17.798904 
	C29.275709,24.226456 27.191448,31.293364 28.168419,37.626606 
	C30.592611,53.341492 34.199219,68.929962 38.322605,84.303223 
	C40.398041,92.041084 44.480152,99.306145 50.560535,105.008919 
	C55.316841,109.469841 60.386246,109.433456 65.117111,104.988060 
	C66.323822,103.854172 67.416832,102.599266 68.839096,101.689507 
	C69.327866,102.141907 69.539612,102.304771 69.761131,102.790451 
	C69.604790,107.863510 73.432968,108.656693 76.650612,109.667175 
	C84.072083,111.997856 90.938187,110.212379 97.739899,105.473862 
	C97.739899,107.661240 97.676224,109.141991 97.750504,110.615784 
	C98.152077,118.583206 98.066193,126.619919 99.138702,134.497925 
	C100.607674,145.287994 108.968636,150.741318 119.708046,148.792709 
	C130.904022,146.761261 136.102097,141.521912 138.105026,130.212341 
	C138.452454,128.250549 138.730911,126.275879 139.009354,124.302650 
	C139.973816,117.468208 140.924194,110.631790 141.886108,103.751877 
	C143.570435,103.953613 144.721756,104.175964 145.879486,104.216660 
	C154.263031,104.511337 162.250626,103.122398 168.668686,97.312515 
	C170.359421,95.781975 170.902374,92.983498 171.972412,90.767273 
	C169.707870,90.241394 167.459824,89.401657 165.173950,89.281441 
	C163.058197,89.170174 160.905853,90.055840 158.762558,90.092934 
	C155.877441,90.142876 152.985535,89.800056 149.434540,89.585884 
	C150.625290,87.581665 151.296097,86.461754 151.958221,85.336739 
	C161.306763,69.452820 168.505157,52.717728 171.065720,34.338795 
	C173.119583,19.596863 170.973740,13.228364 154.484558,3.915684 
	C153.474457,3.345205 152.369202,2.943196 151.308228,2.462805 
	C151.538834,1.975208 151.769424,1.487607 152.000000,1.000003 
M157.471161,157.381561 
	C156.754608,158.932144 156.038071,160.482727 155.132141,162.825638 
	C153.410110,168.679138 153.956314,173.930847 159.429108,178.584869 
	C162.925278,179.733124 166.421463,180.881393 170.415222,182.568939 
	C173.658707,183.900024 176.846649,185.870209 180.359985,184.095917 
	C180.463684,183.574478 180.567383,183.053024 180.671097,182.531586 
	C178.803207,182.008881 176.935333,181.486160 175.083786,180.260452 
	C176.876190,177.185394 179.161163,174.289307 180.357056,170.997559 
	C182.748245,164.415710 179.557251,157.233734 173.301239,153.790283 
	C167.658279,150.684250 162.585022,151.760971 158.016052,157.011917 
	C158.016052,157.011917 158.028473,157.062210 157.471161,157.381561 
M188.977859,176.989502 
	C188.887268,169.683594 188.796677,162.377670 188.773041,154.345642 
	C186.948303,152.636810 185.259109,151.799545 184.066528,155.899765 
	C184.399460,164.007782 184.732407,172.115799 184.709427,180.216690 
	C184.826859,180.337524 184.944275,180.458374 185.781113,180.728912 
	C186.509552,180.701523 187.237991,180.674133 188.762070,180.840515 
	C192.831085,180.821014 197.202194,182.551651 200.744141,179.478394 
	C200.704697,178.956909 200.665253,178.435440 200.625824,177.913956 
	C196.765594,177.913956 192.905365,177.913956 188.977859,176.989502 
M147.078491,171.673157 
	C147.561386,177.991241 144.182358,179.479858 134.571960,176.598679 
	C134.918106,178.201324 135.056534,180.419250 135.461075,180.468872 
	C139.108047,180.916473 143.100601,181.937408 146.400192,180.903046 
	C149.919006,179.799973 152.555573,176.510483 151.651978,171.366867 
	C150.762466,170.245239 149.872940,169.123596 148.676575,167.395996 
	C146.456528,166.248459 144.236481,165.100937 141.626114,163.394089 
	C140.501450,162.196014 139.376785,160.997925 138.252121,159.799850 
	C139.722992,158.546921 141.027695,156.915848 142.721985,156.171371 
	C143.889938,155.658157 145.617950,156.593689 147.056061,156.458984 
	C147.990433,156.371429 148.853592,155.523575 150.317764,154.693848 
	C148.138855,153.921204 146.928879,153.317474 145.650055,153.071335 
	C141.769409,152.324448 136.428925,155.004715 135.339569,158.251541 
	C133.714340,163.095551 136.428131,165.700226 140.353409,167.634552 
	C142.579727,168.731659 144.783813,169.873825 147.078491,171.673157 
M24.021790,25.712681 
	C24.021790,32.794659 24.021790,39.876640 24.021790,46.958618 
	C24.144108,46.953674 24.266426,46.948730 24.388742,46.943790 
	C24.833361,37.821533 25.277979,28.699278 25.753805,18.936716 
	C25.086004,21.248241 24.563643,23.056337 24.021790,25.712681 
z"/>
<path fill="#E8EFF3" opacity="1.000000" stroke="none" 
	d="
M68.562088,101.399963 
	C67.416832,102.599266 66.323822,103.854172 65.117111,104.988060 
	C60.386246,109.433456 55.316841,109.469841 50.560535,105.008919 
	C44.480152,99.306145 40.398041,92.041084 38.322605,84.303223 
	C34.199219,68.929962 30.592611,53.341492 28.168419,37.626606 
	C27.191448,31.293364 29.275709,24.226456 31.064430,17.798904 
	C32.991451,10.874395 38.395630,6.564510 45.022373,3.849305 
	C46.386570,3.290344 47.575199,2.302871 48.422375,1.256454 
	C53.354931,1.000000 58.709858,1.000000 64.604034,1.316198 
	C65.428848,1.421598 65.714424,1.210800 66.000000,1.000001 
	C66.750000,1.000000 67.500000,1.000000 68.349182,1.344168 
	C73.462585,3.131414 78.451653,5.549975 83.499710,5.680113 
	C86.957298,5.769248 90.497002,2.672522 94.000000,1.000000 
	C113.020897,1.000000 132.041794,1.000000 151.531342,1.000003 
	C151.769424,1.487607 151.538834,1.975208 151.308228,2.462805 
	C152.369202,2.943196 153.474457,3.345205 154.484558,3.915684 
	C170.973740,13.228364 173.119583,19.596863 171.065720,34.338795 
	C168.505157,52.717728 161.306763,69.452820 151.958221,85.336739 
	C151.296097,86.461754 150.625290,87.581665 149.434540,89.585884 
	C152.985535,89.800056 155.877441,90.142876 158.762558,90.092934 
	C160.905853,90.055840 163.058197,89.170174 165.173950,89.281441 
	C167.459824,89.401657 169.707870,90.241394 171.972412,90.767273 
	C170.902374,92.983498 170.359421,95.781975 168.668686,97.312515 
	C162.250626,103.122398 154.263031,104.511337 145.879486,104.216660 
	C144.721756,104.175964 143.570435,103.953613 141.886108,103.751877 
	C140.924194,110.631790 139.973816,117.468208 139.009354,124.302650 
	C138.730911,126.275879 138.452454,128.250549 138.105026,130.212341 
	C136.102097,141.521912 130.904022,146.761261 119.708046,148.792709 
	C108.968636,150.741318 100.607674,145.287994 99.138702,134.497925 
	C98.066193,126.619919 98.152077,118.583206 97.750504,110.615784 
	C97.676224,109.141991 97.739899,107.661240 97.739899,105.473862 
	C90.938187,110.212379 84.072083,111.997856 76.650612,109.667175 
	C73.432968,108.656693 69.604790,107.863510 70.004379,102.552353 
	C73.229469,100.763245 76.294327,99.684570 79.192139,98.264923 
	C82.107941,96.836472 84.857597,95.068893 88.802208,92.806252 
	C84.247559,91.505508 81.457588,90.708733 78.350937,89.821510 
	C75.133263,93.627449 71.847672,97.513702 68.562088,101.399963 
M86.427536,100.024132 
	C86.200005,100.291222 85.972481,100.558311 85.833664,100.787376 
	C85.833664,100.787376 85.759865,100.725166 85.022881,100.877174 
	C81.844109,101.847176 78.665337,102.817177 74.458336,104.100937 
	C80.018257,106.304298 84.430763,107.061630 89.704582,104.929504 
	C91.004944,104.236694 92.344200,103.607292 93.597755,102.838188 
	C96.426590,101.102631 97.757347,98.533546 96.817886,95.318108 
	C96.535843,94.352753 94.252068,92.997734 94.149620,93.099091 
	C92.306870,94.922279 90.658318,96.941742 88.372475,99.055595 
	C87.882271,99.347153 87.392067,99.638718 86.972755,99.975060 
	C86.972755,99.975060 86.956032,99.892891 86.427536,100.024132 
M144.655838,62.020206 
	C144.721848,56.697922 144.787872,51.375641 144.957291,45.410519 
	C144.634979,44.616070 144.312683,43.821621 144.253815,42.370838 
	C144.144958,41.672020 144.258347,40.527378 143.892136,40.344845 
	C140.936615,38.871632 134.494812,40.614353 131.840103,44.110168 
	C132.131226,48.560871 131.505096,53.330067 132.915497,57.392139 
	C135.406982,64.567810 139.139008,71.312744 142.351761,78.237984 
	C142.990326,78.080902 143.628891,77.923828 144.267456,77.766747 
	C145.773819,72.941978 145.395187,67.963585 144.655838,62.020206 
M92.009628,45.165218 
	C90.127426,42.261852 88.027069,39.855286 83.304817,41.730358 
	C81.864304,42.198433 80.423790,42.666504 78.283600,43.207611 
	C76.320122,44.885715 72.910271,46.373280 72.659485,48.277008 
	C71.848732,54.431293 72.199112,60.738544 71.878731,67.844276 
	C71.228867,76.159637 74.405518,82.482475 81.941666,86.202774 
	C85.076118,87.750107 88.233620,88.388596 89.554161,83.464119 
	C90.516983,79.873634 92.493813,76.560623 93.524101,72.981575 
	C96.162209,63.817272 97.436226,54.636757 92.009628,45.165218 
M149.069656,61.888390 
	C149.069656,68.122101 149.069656,74.355820 149.069656,81.486931 
	C150.366638,79.022041 151.379471,77.097153 152.908707,74.693192 
	C153.871185,72.441872 154.717560,70.132195 155.815048,67.948738 
	C162.751404,54.148670 167.424042,39.744553 166.874191,24.116129 
	C166.783905,21.549974 165.466354,18.618862 163.818375,16.583055 
	C154.376282,4.918977 141.408112,3.746096 127.736526,5.125713 
	C127.144554,5.185450 126.631332,6.025636 125.461258,7.039799 
	C136.511597,11.809002 142.273499,20.634712 147.269104,30.279596 
	C150.020828,35.592274 150.287292,40.943542 149.614197,46.706783 
	C149.061096,51.442493 149.295944,56.270237 149.069656,61.888390 
M136.720596,75.916771 
	C133.574890,68.976562 129.687271,62.265846 127.453270,55.043625 
	C123.893211,43.534416 128.497360,37.200691 140.213287,36.273872 
	C144.207855,35.957874 144.844650,34.584099 142.966492,31.312037 
	C138.126984,22.880768 132.405029,15.441912 123.397079,10.875093 
	C101.292480,-0.331438 80.524857,5.332597 74.016663,30.986483 
	C71.730415,39.998363 72.016190,40.214382 80.872841,37.866959 
	C83.081612,37.281532 85.469238,36.987476 87.744049,37.113251 
	C92.715614,37.388130 96.475807,40.051086 97.739731,44.792450 
	C100.608719,55.554943 101.454247,66.367432 96.706299,76.986069 
	C95.113380,80.548576 93.949127,84.302757 92.583778,87.983261 
	C100.684235,90.531036 101.819946,92.249756 101.987762,100.577034 
	C102.192177,110.720032 102.302238,120.877823 102.972336,130.994827 
	C103.611328,140.642166 107.486824,143.936234 116.905960,143.963760 
	C127.170006,143.993759 132.368820,139.658768 133.929672,129.073303 
	C135.452026,118.749016 136.737717,108.378250 137.699814,97.988312 
	C138.118515,93.466919 139.597092,90.136749 143.727371,88.446404 
	C141.414413,84.366943 139.212036,80.482498 136.720596,75.916771 
M33.965942,21.810196 
	C33.401051,28.057537 31.613396,34.483288 32.494148,40.519699 
	C35.467800,60.900150 39.916580,80.946922 50.890594,98.909981 
	C54.358360,104.586281 58.733170,105.461952 63.190876,100.624504 
	C66.091591,97.476685 68.680008,94.022392 71.737556,91.043297 
	C74.510841,88.341164 73.722717,86.436516 72.064957,83.325516 
	C69.728767,78.941360 67.620094,73.918213 67.352249,69.061394 
	C66.851357,59.978935 67.313019,50.778893 68.172226,41.703320 
	C69.107147,31.828053 69.749344,21.687599 77.038849,13.689776 
	C79.861183,10.593204 78.088753,8.457018 74.774185,8.056060 
	C67.725769,7.203421 60.592037,6.193999 53.538467,6.457705 
	C44.084526,6.811153 37.715889,12.286361 33.965942,21.810196 
M142.659958,94.484665 
	C141.854324,96.756721 140.937531,99.761253 144.547577,99.591713 
	C150.205032,99.326004 155.826660,98.102554 161.427902,97.088371 
	C162.104263,96.965904 162.560135,95.625771 162.900497,95.152649 
	C157.382416,94.239731 152.286346,93.268661 147.148575,92.636818 
	C145.867569,92.479279 144.451965,93.416222 142.659958,94.484665 
z"/>
<path fill="#141517" opacity="1.000000" stroke="none" 
	d="
M93.531349,1.000000 
	C90.497002,2.672522 86.957298,5.769248 83.499710,5.680113 
	C78.451653,5.549975 73.462585,3.131414 68.724182,1.344168 
	C77.020897,1.000000 85.041801,1.000000 93.531349,1.000000 
z"/>
<path fill="#141517" opacity="1.000000" stroke="none" 
	d="
M65.750000,1.000001 
	C65.714424,1.210800 65.428848,1.421598 65.071640,1.316198 
	C65.000000,1.000000 65.500000,1.000000 65.750000,1.000001 
z"/>
<path fill="#1E4D74" opacity="1.000000" stroke="none" 
	d="
M169.917633,182.029663 
	C166.421463,180.881393 162.925278,179.733124 159.604706,178.215881 
	C160.174591,176.941742 160.568848,176.036575 161.272064,175.309677 
	C164.004745,178.562012 166.952881,178.651215 170.358749,177.271988 
	C174.702835,175.512772 175.824722,171.880295 176.044922,167.806870 
	C176.288712,163.297119 174.993805,159.397980 170.797821,156.932220 
	C166.863754,154.620377 163.940536,156.791306 160.943649,158.685684 
	C159.944412,157.906494 159.006668,157.464798 158.068939,157.023087 
	C162.585022,151.760971 167.658279,150.684250 173.301239,153.790283 
	C179.557251,157.233734 182.748245,164.415710 180.357056,170.997559 
	C179.161163,174.289307 176.876190,177.185394 174.702011,180.666901 
	C172.852707,181.392105 171.385162,181.710892 169.917633,182.029663 
z"/>
<path fill="#22537B" opacity="1.000000" stroke="none" 
	d="
M148.983429,168.001968 
	C149.872940,169.123596 150.762466,170.245239 151.362793,171.672607 
	C149.715057,171.650803 148.356476,171.323242 146.997910,170.995682 
	C144.783813,169.873825 142.579727,168.731659 140.353409,167.634552 
	C136.428131,165.700226 133.714340,163.095551 135.339569,158.251541 
	C136.428925,155.004715 141.769409,152.324448 145.650055,153.071335 
	C146.928879,153.317474 148.138855,153.921204 150.317764,154.693848 
	C148.853592,155.523575 147.990433,156.371429 147.056061,156.458984 
	C145.617950,156.593689 143.889938,155.658157 142.721985,156.171371 
	C141.027695,156.915848 139.722992,158.546921 138.252121,159.799850 
	C139.376785,160.997925 140.501450,162.196014 141.875900,164.028381 
	C144.411606,165.775772 146.697510,166.888870 148.983429,168.001968 
z"/>
<path fill="#30608C" opacity="1.000000" stroke="none" 
	d="
M185.065338,180.223816 
	C184.732407,172.115799 184.399460,164.007782 184.425919,155.432770 
	C186.092239,155.001099 187.399155,155.036438 188.706085,155.071762 
	C188.796677,162.377670 188.887268,169.683594 188.972839,177.750168 
	C188.634018,179.222809 188.300217,179.934769 187.966431,180.646729 
	C187.237991,180.674133 186.509552,180.701523 185.434753,180.565796 
	C185.088379,180.402695 185.065353,180.223816 185.065338,180.223816 
z"/>
<path fill="#2B597F" opacity="1.000000" stroke="none" 
	d="
M160.963120,175.131424 
	C160.568848,176.036575 160.174591,176.941742 159.462677,177.898865 
	C153.956314,173.930847 153.410110,168.679138 155.539459,162.336121 
	C156.640671,160.251801 157.334564,158.656998 158.028473,157.062210 
	C158.028473,157.062210 158.016052,157.011917 158.042496,157.017502 
	C159.006668,157.464798 159.944412,157.906494 160.900146,159.072815 
	C158.212708,164.916733 158.715210,170.026642 160.963120,175.131424 
z"/>
<path fill="#14436D" opacity="1.000000" stroke="none" 
	d="
M147.038208,171.334412 
	C148.356476,171.323242 149.715057,171.650803 151.422180,171.980408 
	C152.555573,176.510483 149.919006,179.799973 146.400192,180.903046 
	C143.100601,181.937408 139.108047,180.916473 135.461075,180.468872 
	C135.056534,180.419250 134.918106,178.201324 134.571960,176.598679 
	C144.182358,179.479858 147.561386,177.991241 147.038208,171.334412 
z"/>
<path fill="#373836" opacity="1.000000" stroke="none" 
	d="
M24.031536,25.288559 
	C24.563643,23.056337 25.086004,21.248241 25.753805,18.936716 
	C25.277979,28.699278 24.833361,37.821533 24.388742,46.943790 
	C24.266426,46.948730 24.144108,46.953674 24.021790,46.958618 
	C24.021790,39.876640 24.021790,32.794659 24.031536,25.288559 
z"/>
<path fill="#164873" opacity="1.000000" stroke="none" 
	d="
M188.364258,180.743622 
	C188.300217,179.934769 188.634018,179.222809 189.006470,178.212402 
	C192.905365,177.913956 196.765594,177.913956 200.625824,177.913956 
	C200.665253,178.435440 200.704697,178.956909 200.744141,179.478394 
	C197.202194,182.551651 192.831085,180.821014 188.364258,180.743622 
z"/>
<path fill="#124172" opacity="1.000000" stroke="none" 
	d="
M170.166428,182.299301 
	C171.385162,181.710892 172.852707,181.392105 174.693848,181.018387 
	C176.935333,181.486160 178.803207,182.008881 180.671097,182.531586 
	C180.567383,183.053024 180.463684,183.574478 180.359985,184.095917 
	C176.846649,185.870209 173.658707,183.900024 170.166428,182.299301 
z"/>
<path fill="#14436D" opacity="1.000000" stroke="none" 
	d="
M148.830002,167.698975 
	C146.697510,166.888870 144.411606,165.775772 142.071060,164.308044 
	C144.236481,165.100937 146.456528,166.248459 148.830002,167.698975 
z"/>
<path fill="#264D6D" opacity="1.000000" stroke="none" 
	d="
M188.739563,154.708710 
	C187.399155,155.036438 186.092239,155.001099 184.495911,155.010788 
	C185.259109,151.799545 186.948303,152.636810 188.739563,154.708710 
z"/>
<path fill="#1E4D74" opacity="1.000000" stroke="none" 
	d="
M157.749817,157.221893 
	C157.334564,158.656998 156.640671,160.251801 155.634140,161.939941 
	C156.038071,160.482727 156.754608,158.932144 157.749817,157.221893 
z"/>
<path fill="#164873" opacity="1.000000" stroke="none" 
	d="
M184.887390,180.220245 
	C185.065353,180.223816 185.088379,180.402695 185.075043,180.490952 
	C184.944275,180.458374 184.826859,180.337524 184.887390,180.220245 
z"/>
<path fill="#356791" opacity="1.000000" stroke="none" 
	d="
M136.865112,76.257416 
	C139.212036,80.482498 141.414413,84.366943 143.727371,88.446404 
	C139.597092,90.136749 138.118515,93.466919 137.699814,97.988312 
	C136.737717,108.378250 135.452026,118.749016 133.929672,129.073303 
	C132.368820,139.658768 127.170006,143.993759 116.905960,143.963760 
	C107.486824,143.936234 103.611328,140.642166 102.972336,130.994827 
	C102.302238,120.877823 102.192177,110.720032 101.987762,100.577034 
	C101.819946,92.249756 100.684235,90.531036 92.583778,87.983261 
	C93.949127,84.302757 95.113380,80.548576 96.706299,76.986069 
	C101.454247,66.367432 100.608719,55.554943 97.739731,44.792450 
	C96.475807,40.051086 92.715614,37.388130 87.744049,37.113251 
	C85.469238,36.987476 83.081612,37.281532 80.872841,37.866959 
	C72.016190,40.214382 71.730415,39.998363 74.016663,30.986483 
	C80.524857,5.332597 101.292480,-0.331438 123.397079,10.875093 
	C132.405029,15.441912 138.126984,22.880768 142.966492,31.312037 
	C144.844650,34.584099 144.207855,35.957874 140.213287,36.273872 
	C128.497360,37.200691 123.893211,43.534416 127.453270,55.043625 
	C129.687271,62.265846 133.574890,68.976562 136.865112,76.257416 
z"/>
<path fill="#356791" opacity="1.000000" stroke="none" 
	d="
M34.097683,21.436092 
	C37.715889,12.286361 44.084526,6.811153 53.538467,6.457705 
	C60.592037,6.193999 67.725769,7.203421 74.774185,8.056060 
	C78.088753,8.457018 79.861183,10.593204 77.038849,13.689776 
	C69.749344,21.687599 69.107147,31.828053 68.172226,41.703320 
	C67.313019,50.778893 66.851357,59.978935 67.352249,69.061394 
	C67.620094,73.918213 69.728767,78.941360 72.064957,83.325516 
	C73.722717,86.436516 74.510841,88.341164 71.737556,91.043297 
	C68.680008,94.022392 66.091591,97.476685 63.190876,100.624504 
	C58.733170,105.461952 54.358360,104.586281 50.890594,98.909981 
	C39.916580,80.946922 35.467800,60.900150 32.494148,40.519699 
	C31.613396,34.483288 33.401051,28.057537 34.097683,21.436092 
z"/>
<path fill="#366891" opacity="1.000000" stroke="none" 
	d="
M149.181549,61.057186 
	C149.295944,56.270237 149.061096,51.442493 149.614197,46.706783 
	C150.287292,40.943542 150.020828,35.592274 147.269104,30.279596 
	C142.273499,20.634712 136.511597,11.809002 125.461258,7.039799 
	C126.631332,6.025636 127.144554,5.185450 127.736526,5.125713 
	C141.408112,3.746096 154.376282,4.918977 163.818375,16.583055 
	C165.466354,18.618862 166.783905,21.549974 166.874191,24.116129 
	C167.424042,39.744553 162.751404,54.148670 155.815048,67.948738 
	C154.717560,70.132195 153.871185,72.441872 152.308472,74.663712 
	C151.475204,72.887413 151.324280,71.124702 150.990402,69.397362 
	C150.450714,66.605080 149.790726,63.836044 149.181549,61.057186 
z"/>
<path fill="#366891" opacity="1.000000" stroke="none" 
	d="
M78.983276,43.134575 
	C80.423790,42.666504 81.864304,42.198433 83.681915,42.106575 
	C84.249306,44.751461 81.695168,47.948189 86.000847,48.837730 
	C88.622246,49.379295 91.462791,49.820156 92.003464,45.884251 
	C97.436226,54.636757 96.162209,63.817272 93.524101,72.981575 
	C92.493813,76.560623 90.516983,79.873634 89.554161,83.464119 
	C88.233620,88.388596 85.076118,87.750107 81.941666,86.202774 
	C74.405518,82.482475 71.228867,76.159637 72.372269,67.307404 
	C73.244781,64.440262 73.859779,62.119743 73.956566,59.777809 
	C74.204811,53.771313 72.586212,47.265583 78.983276,43.134575 
z"/>
<path fill="#386991" opacity="1.000000" stroke="none" 
	d="
M143.990372,43.027176 
	C144.312683,43.821621 144.634979,44.616070 144.586731,45.948231 
	C142.457596,52.024483 141.705826,57.537064 144.640823,62.954575 
	C145.395187,67.963585 145.773819,72.941978 144.267456,77.766747 
	C143.628891,77.923828 142.990326,78.080902 142.351761,78.237984 
	C139.139008,71.312744 135.406982,64.567810 132.915497,57.392139 
	C131.505096,53.330067 132.131226,48.560871 132.353638,43.661011 
	C136.570435,48.613312 137.812317,48.680687 142.823486,43.789146 
	C143.149612,43.470791 143.598557,43.278244 143.990372,43.027176 
z"/>
<path fill="#497192" opacity="1.000000" stroke="none" 
	d="
M142.879089,94.167389 
	C144.451965,93.416222 145.867569,92.479279 147.148575,92.636818 
	C152.286346,93.268661 157.382416,94.239731 162.900497,95.152649 
	C162.560135,95.625771 162.104263,96.965904 161.427902,97.088371 
	C155.826660,98.102554 150.205032,99.326004 144.547577,99.591713 
	C140.937531,99.761253 141.854324,96.756721 142.879089,94.167389 
z"/>
<path fill="#161617" opacity="1.000000" stroke="none" 
	d="
M68.839096,101.689507 
	C71.847672,97.513702 75.133263,93.627449 78.350937,89.821510 
	C81.457588,90.708733 84.247559,91.505508 88.802208,92.806252 
	C84.857597,95.068893 82.107941,96.836472 79.192139,98.264923 
	C76.294327,99.684570 73.229469,100.763245 69.994614,102.229546 
	C69.539612,102.304771 69.327866,102.141907 68.839096,101.689507 
z"/>
<path fill="#386990" opacity="1.000000" stroke="none" 
	d="
M88.968185,98.919174 
	C90.658318,96.941742 92.306870,94.922279 94.149620,93.099091 
	C94.252068,92.997734 96.535843,94.352753 96.817886,95.318108 
	C97.757347,98.533546 96.426590,101.102631 93.597755,102.838188 
	C92.344200,103.607292 91.004944,104.236694 89.025154,104.815216 
	C87.483772,103.375679 86.621819,102.050423 85.759865,100.725166 
	C85.759865,100.725166 85.833664,100.787376 86.056366,100.748558 
	C86.504730,100.437454 86.730385,100.165176 86.956039,99.892899 
	C86.956032,99.892891 86.972755,99.975060 87.248108,99.947968 
	C88.005028,99.586967 88.486603,99.253067 88.968185,98.919174 
z"/>
<path fill="#D9E6F1" opacity="1.000000" stroke="none" 
	d="
M144.122101,42.699005 
	C143.598557,43.278244 143.149612,43.470791 142.823486,43.789146 
	C137.812317,48.680687 136.570435,48.613312 132.498169,43.295059 
	C134.494812,40.614353 140.936615,38.871632 143.892136,40.344845 
	C144.258347,40.527378 144.144958,41.672020 144.122101,42.699005 
z"/>
<path fill="#98B1C4" opacity="1.000000" stroke="none" 
	d="
M92.006546,45.524734 
	C91.462791,49.820156 88.622246,49.379295 86.000847,48.837730 
	C81.695168,47.948189 84.249306,44.751461 84.064171,42.080574 
	C88.027069,39.855286 90.127426,42.261852 92.006546,45.524734 
z"/>
<path fill="#436D8D" opacity="1.000000" stroke="none" 
	d="
M85.391373,100.801170 
	C86.621819,102.050423 87.483772,103.375679 88.668991,104.853241 
	C84.430763,107.061630 80.018257,106.304298 74.458336,104.100937 
	C78.665337,102.817177 81.844109,101.847176 85.391373,100.801170 
z"/>
<path fill="#3B6483" opacity="1.000000" stroke="none" 
	d="
M78.633438,43.171093 
	C72.586212,47.265583 74.204811,53.771313 73.956566,59.777809 
	C73.859779,62.119743 73.244781,64.440262 72.483948,66.878693 
	C72.199112,60.738544 71.848732,54.431293 72.659485,48.277008 
	C72.910271,46.373280 76.320122,44.885715 78.633438,43.171093 
z"/>
<path fill="#335F81" opacity="1.000000" stroke="none" 
	d="
M149.125610,61.472786 
	C149.790726,63.836044 150.450714,66.605080 150.990402,69.397362 
	C151.324280,71.124702 151.475204,72.887413 152.050293,74.903259 
	C151.379471,77.097153 150.366638,79.022041 149.069656,81.486931 
	C149.069656,74.355820 149.069656,68.122101 149.125610,61.472786 
z"/>
<path fill="#2B587B" opacity="1.000000" stroke="none" 
	d="
M144.648331,62.487389 
	C141.705826,57.537064 142.457596,52.024483 144.535019,46.269650 
	C144.787872,51.375641 144.721848,56.697922 144.648331,62.487389 
z"/>
<path fill="#436D8D" opacity="1.000000" stroke="none" 
	d="
M88.670326,98.987381 
	C88.486603,99.253067 88.005028,99.586967 87.212662,99.925575 
	C87.392067,99.638718 87.882271,99.347153 88.670326,98.987381 
z"/>
<path fill="#436D8D" opacity="1.000000" stroke="none" 
	d="
M86.691788,99.958511 
	C86.730385,100.165176 86.504730,100.437454 86.012016,100.767578 
	C85.972481,100.558311 86.200005,100.291222 86.691788,99.958511 
z"/>
<path fill="#000000" opacity="1.000000" stroke="none" 
	d="
M161.272064,175.309677 
	C158.715210,170.026642 158.212708,164.916733 160.961670,159.410309 
	C163.940536,156.791306 166.863754,154.620377 170.797821,156.932220 
	C174.993805,159.397980 176.288712,163.297119 176.044922,167.806870 
	C175.824722,171.880295 174.702835,175.512772 170.358749,177.271988 
	C166.952881,178.651215 164.004745,178.562012 161.272064,175.309677 
z"/>
</svg>