<svg version="1.1" id="Layer_1" xmlns="http://www.w3.org/2000/svg" xmlns:xlink="http://www.w3.org/1999/xlink" x="0px" y="0px"
	 width="100%" viewBox="0 0 204 192" enable-background="new 0 0 204 192" xml:space="preserve">
<path fill="#FFFEFE" opacity="1.000000" stroke="none" 
	d="
M126.000000,193.000000 
	C84.026215,193.000000 42.552425,193.000000 1.039319,193.000000 
	C1.039319,129.066650 1.039319,65.133286 1.039319,1.099956 
	C68.890282,1.099956 136.780762,1.099956 204.835617,1.099956 
	C204.835617,64.999657 204.835617,128.999786 204.835617,193.000000 
	C178.800232,193.000000 152.650116,193.000000 126.000000,193.000000 
M145.280655,169.859940 
	C182.618530,153.840149 198.503036,118.662079 193.740036,84.646660 
	C187.679138,41.362263 148.211609,12.443280 106.362061,16.887392 
	C74.312370,20.290831 46.608334,43.323616 37.990932,74.295326 
	C29.102661,106.240585 40.350220,140.393936 66.661064,159.656738 
	C90.605011,177.186676 116.709679,180.652313 145.280655,169.859940 
z"/>
<path fill="#FF6D38" opacity="1.000000" stroke="none" 
	d="
M144.920990,169.999207 
	C116.709679,180.652313 90.605011,177.186676 66.661064,159.656738 
	C40.350220,140.393936 29.102661,106.240585 37.990932,74.295326 
	C46.608334,43.323616 74.312370,20.290831 106.362061,16.887392 
	C148.211609,12.443280 187.679138,41.362263 193.740036,84.646660 
	C198.503036,118.662079 182.618530,153.840149 144.920990,169.999207 
M128.224823,99.639870 
	C128.345764,99.303360 128.466705,98.966850 128.954422,98.742981 
	C128.954422,98.742981 128.585892,98.615021 129.226700,98.615204 
	C129.481827,98.070000 129.736954,97.524788 130.275955,96.400078 
	C132.024979,94.559692 133.774002,92.719315 136.178070,90.704994 
	C136.440948,90.118965 136.703812,89.532944 137.004456,88.990097 
	C137.004456,88.990097 136.948242,88.978798 137.421707,88.737907 
	C137.596283,88.437531 137.770844,88.137161 138.103531,87.360214 
	C138.544113,86.860481 138.984695,86.360748 140.143631,85.663589 
	C140.387726,85.004234 140.631821,84.344879 140.907135,83.330170 
	C140.982300,83.084816 141.139023,82.914551 142.005356,82.754318 
	C142.286316,81.818642 142.567276,80.882965 142.951004,79.157974 
	C142.997726,78.632103 143.044449,78.106232 142.899185,76.991760 
	C142.452133,76.587639 142.005081,76.183510 141.873734,75.264084 
	C142.304855,74.842033 142.735962,74.419983 143.835480,73.854607 
	C144.569046,72.202682 145.302612,70.550758 146.741745,68.952469 
	C149.321640,69.187714 151.901535,69.422951 154.481430,69.658195 
	C154.623840,69.088036 154.766235,68.517883 154.908646,67.947723 
	C152.628876,65.828133 150.265381,63.789776 148.100479,61.558727 
	C146.784042,60.202080 146.921722,60.068481 149.332870,59.542141 
	C151.142471,61.445835 153.058746,63.260803 154.734711,65.275665 
	C156.836960,67.803009 158.972366,67.447845 160.084549,64.851524 
	C161.322189,61.962387 162.165085,58.695396 162.229019,55.573425 
	C162.287994,52.693508 160.835373,50.086430 156.426071,50.478489 
	C158.974106,46.203461 154.583710,46.586628 153.059845,46.304619 
	C143.146774,44.470058 135.673065,54.220352 139.384506,63.962708 
	C138.385025,64.039070 137.385529,64.115433 135.675369,64.314529 
	C132.908325,65.291008 129.603226,65.610687 127.468727,67.359299 
	C118.895462,74.382645 110.641968,81.801086 102.407883,89.226105 
	C101.612045,89.943748 101.766953,91.715752 100.846794,93.471909 
	C97.836769,95.192795 94.826752,96.913681 91.816727,98.634575 
	C92.067978,99.214172 92.319229,99.793777 92.570473,100.373375 
	C95.368729,99.868271 98.166977,99.363167 101.295891,99.418373 
	C101.931458,101.390579 102.567032,103.362785 102.955956,104.569664 
	C100.681511,106.102623 99.329239,107.014038 97.640091,108.501160 
	C90.425873,115.667351 83.211655,122.833549 75.539932,130.012726 
	C75.345901,130.336395 75.151878,130.660049 74.778542,131.621689 
	C74.795776,132.055725 74.813011,132.489746 74.235252,133.069733 
	C73.419662,133.672455 72.604073,134.275177 71.216393,135.166824 
	C70.056694,136.424652 68.896996,137.682495 67.270477,139.313354 
	C67.972130,142.554443 69.421379,142.191208 71.936684,140.342621 
	C73.945580,140.436554 75.954475,140.530502 78.609024,140.705841 
	C79.826057,140.137634 81.043091,139.569427 82.300026,138.121887 
	C80.813911,133.922150 82.684158,131.984406 86.359291,129.700836 
	C96.258232,123.550056 105.673264,116.620499 115.875580,109.996742 
	C116.586250,109.487534 117.296921,108.978325 118.533234,107.998703 
	C121.042496,105.672569 123.551750,103.346428 126.678329,100.940437 
	C126.999283,100.494865 127.320229,100.049294 127.994675,99.675087 
	C127.994675,99.675087 127.637215,99.633018 128.224823,99.639870 
z"/>
<path fill="#FFF8F6" opacity="1.000000" stroke="none" 
	d="
M115.280373,110.000061 
	C105.673264,116.620499 96.258232,123.550056 86.359291,129.700836 
	C82.684158,131.984406 80.813911,133.922150 81.951065,138.439514 
	C79.344826,136.812683 77.087532,134.868225 74.830246,132.923782 
	C74.813011,132.489746 74.795776,132.055725 75.104507,131.215500 
	C75.619453,130.539459 75.808449,130.269608 75.997437,129.999741 
	C83.211655,122.833549 90.425873,115.667351 98.194260,108.128471 
	C100.989128,106.083328 105.572716,109.050293 106.313240,104.036896 
	C106.503006,104.042389 106.878777,103.987984 106.969460,104.352074 
	C109.800217,106.477463 112.540298,108.238754 115.280373,110.000061 
z"/>
<path fill="#FFF5F2" opacity="1.000000" stroke="none" 
	d="
M101.480515,92.998306 
	C101.766953,91.715752 101.612045,89.943748 102.407883,89.226105 
	C110.641968,81.801086 118.895462,74.382645 127.468727,67.359299 
	C129.603226,65.610687 132.908325,65.291008 136.234833,64.531479 
	C136.940002,65.358406 137.412628,66.284386 137.178192,66.526932 
	C135.690994,68.065536 133.957901,69.366432 132.470322,70.904716 
	C123.862068,79.806396 115.299568,88.752319 106.820946,97.579788 
	C104.808289,95.949585 103.915344,95.226318 102.976990,94.265732 
	C102.447891,93.685051 101.964203,93.341682 101.480515,92.998306 
z"/>
<path fill="#FFFAF8" opacity="1.000000" stroke="none" 
	d="
M143.167084,73.997940 
	C142.735962,74.419983 142.304855,74.842033 141.414520,75.636490 
	C136.140503,80.259636 131.325684,84.510376 126.222580,88.901825 
	C125.122139,90.018784 124.309975,90.995026 123.473450,91.975189 
	C123.449097,91.979111 123.436378,91.989326 123.039711,92.077820 
	C119.713150,94.630875 116.703224,97.007660 113.876373,99.585228 
	C111.174110,102.049194 109.107460,101.977928 107.995438,99.726562 
	C117.419724,89.875824 126.433418,80.308624 135.674057,70.965874 
	C136.936234,69.689743 139.451004,68.839333 141.152206,69.135170 
	C142.077728,69.296120 142.511520,72.284706 143.167084,73.997940 
z"/>
<path fill="#FFF9F7" opacity="1.000000" stroke="none" 
	d="
M140.380966,63.889618 
	C135.673065,54.220352 143.146774,44.470058 153.059845,46.304619 
	C154.583710,46.586628 158.974106,46.203461 156.717926,50.742081 
	C157.009796,51.005676 157.000519,50.963360 156.712646,50.686516 
	C153.937820,53.271893 151.450851,56.134117 148.982788,58.999283 
	C149.001694,59.002224 148.986679,58.967785 148.986679,58.967785 
	C146.921722,60.068481 146.784042,60.202080 148.100479,61.558727 
	C150.265381,63.789776 152.628876,65.828133 154.908646,67.947723 
	C154.766235,68.517883 154.623840,69.088036 154.481430,69.658195 
	C151.901535,69.422951 149.321640,69.187714 146.194077,68.669418 
	C143.891266,66.887451 142.136108,65.388535 140.380966,63.889618 
z"/>
<path fill="#FF713A" opacity="1.000000" stroke="none" 
	d="
M139.882736,63.926163 
	C142.136108,65.388535 143.891266,66.887451 145.841293,68.642601 
	C145.302612,70.550758 144.569046,72.202682 143.501282,73.926270 
	C142.511520,72.284706 142.077728,69.296120 141.152206,69.135170 
	C139.451004,68.839333 136.936234,69.689743 135.674057,70.965874 
	C126.433418,80.308624 117.419724,89.875824 107.995438,99.726562 
	C109.107460,101.977928 111.174110,102.049194 113.876373,99.585228 
	C116.703224,97.007660 119.713150,94.630875 123.362808,92.453995 
	C120.563866,96.448952 117.045158,100.156227 113.189659,104.218338 
	C114.908981,105.735268 116.458282,107.102196 118.007591,108.469116 
	C117.296921,108.978325 116.586250,109.487534 115.577972,109.998398 
	C112.540298,108.238754 109.800217,106.477463 107.257080,104.264465 
	C107.419304,103.314049 107.384590,102.815331 107.349884,102.316612 
	C106.941078,102.888214 106.532272,103.459808 106.123474,104.031410 
	C105.572716,109.050293 100.989128,106.083328 98.362701,107.840622 
	C99.329239,107.014038 100.681511,106.102623 102.955956,104.569664 
	C102.567032,103.362785 101.931458,101.390579 101.352264,98.925499 
	C101.566589,97.784172 101.647728,97.103493 101.902733,96.495758 
	C102.195580,95.797798 102.642433,95.164459 103.022400,94.503052 
	C103.915344,95.226318 104.808289,95.949585 106.820946,97.579788 
	C115.299568,88.752319 123.862068,79.806396 132.470322,70.904716 
	C133.957901,69.366432 135.690994,68.065536 137.178192,66.526932 
	C137.412628,66.284386 136.940002,65.358406 136.590179,64.470108 
	C137.385529,64.115433 138.385025,64.039070 139.882736,63.926163 
z"/>
<path fill="#FFF5F2" opacity="1.000000" stroke="none" 
	d="
M118.270416,108.233917 
	C116.458282,107.102196 114.908981,105.735268 113.189659,104.218338 
	C117.045158,100.156227 120.563866,96.448952 123.759476,92.365501 
	C123.436378,91.989326 123.449097,91.979111 123.437111,92.399490 
	C125.192474,91.659622 126.959824,90.499367 129.037857,89.255959 
	C133.929413,85.308655 138.510284,81.444504 143.091171,77.580353 
	C143.044449,78.106232 142.997726,78.632103 142.666946,79.781509 
	C142.047699,81.209824 141.712509,82.014603 141.377319,82.819374 
	C141.139023,82.914551 140.982300,83.084816 140.629089,83.713081 
	C140.042465,84.684334 139.733871,85.272675 139.425278,85.861015 
	C138.984695,86.360748 138.544113,86.860481 137.772278,87.701904 
	C137.276764,88.355331 137.112503,88.667061 136.948242,88.978790 
	C136.948242,88.978798 137.004456,88.990097 136.737701,89.149048 
	C136.154984,89.831642 135.839005,90.355293 135.523041,90.878937 
	C133.774002,92.719315 132.024979,94.559692 129.875397,96.808083 
	C129.178513,97.682404 128.882202,98.148712 128.585892,98.615021 
	C128.585892,98.615021 128.954422,98.742981 128.537628,98.768013 
	C127.826996,98.996635 127.665794,99.276627 127.637215,99.633018 
	C127.637215,99.633018 127.994675,99.675087 127.555305,99.722870 
	C126.764297,100.187195 126.412659,100.603745 126.061005,101.020294 
	C123.551750,103.346428 121.042496,105.672569 118.270416,108.233917 
z"/>
<path fill="#FFF1EE" opacity="1.000000" stroke="none" 
	d="
M156.988678,51.008461 
	C160.835373,50.086430 162.287994,52.693508 162.229019,55.573425 
	C162.165085,58.695396 161.322189,61.962387 160.084549,64.851524 
	C158.972366,67.447845 156.836960,67.803009 154.734711,65.275665 
	C153.058746,63.260803 151.142471,61.445835 149.159775,59.254963 
	C148.986679,58.967785 149.001694,59.002224 149.340240,59.073620 
	C152.119354,56.417797 154.559937,53.690575 157.000519,50.963356 
	C157.000519,50.963360 157.009796,51.005676 156.988678,51.008461 
z"/>
<path fill="#FF733E" opacity="1.000000" stroke="none" 
	d="
M142.995178,77.286057 
	C138.510284,81.444504 133.929413,85.308655 128.485779,89.098068 
	C127.252304,88.935921 126.881584,88.848511 126.510864,88.761108 
	C131.325684,84.510376 136.140503,80.259636 141.256683,75.894142 
	C142.005081,76.183510 142.452133,76.587639 142.995178,77.286057 
z"/>
<path fill="#FFEEE9" opacity="1.000000" stroke="none" 
	d="
M102.976990,94.265732 
	C102.642433,95.164459 102.195580,95.797798 101.902733,96.495758 
	C101.647728,97.103493 101.566589,97.784172 101.186928,98.645340 
	C98.166977,99.363167 95.368729,99.868271 92.570473,100.373375 
	C92.319229,99.793777 92.067978,99.214172 91.816727,98.634575 
	C94.826752,96.913681 97.836769,95.192795 101.163651,93.235107 
	C101.964203,93.341682 102.447891,93.685051 102.976990,94.265732 
z"/>
<path fill="#FFF8F6" opacity="1.000000" stroke="none" 
	d="
M67.737297,138.940323 
	C68.896996,137.682495 70.056694,136.424652 71.830490,135.180344 
	C74.284187,137.004059 76.123779,138.814255 77.963371,140.624451 
	C75.954475,140.530502 73.945580,140.436554 71.242096,140.076431 
	C69.610771,139.520264 68.674034,139.230286 67.737297,138.940323 
z"/>
<path fill="#FFEEEA" opacity="1.000000" stroke="none" 
	d="
M78.286194,140.665146 
	C76.123779,138.814255 74.284187,137.004059 72.116531,135.035873 
	C72.604073,134.275177 73.419662,133.672455 74.532745,132.996765 
	C77.087532,134.868225 79.344826,136.812683 81.931122,138.879181 
	C81.043091,139.569427 79.826057,140.137634 78.286194,140.665146 
z"/>
<path fill="#FFEEEA" opacity="1.000000" stroke="none" 
	d="
M67.503891,139.126831 
	C68.674034,139.230286 69.610771,139.520264 70.884850,139.971619 
	C69.421379,142.191208 67.972130,142.554443 67.503891,139.126831 
z"/>
<path fill="#FF733E" opacity="1.000000" stroke="none" 
	d="
M141.691345,82.786850 
	C141.712509,82.014603 142.047699,81.209824 142.615570,80.176163 
	C142.567276,80.882965 142.286316,81.818642 141.691345,82.786850 
z"/>
<path fill="#FF713A" opacity="1.000000" stroke="none" 
	d="
M128.906296,98.615112 
	C128.882202,98.148712 129.178513,97.682404 129.733459,97.097839 
	C129.736954,97.524788 129.481827,98.070000 128.906296,98.615112 
z"/>
<path fill="#FF713A" opacity="1.000000" stroke="none" 
	d="
M135.850555,90.791969 
	C135.839005,90.355293 136.154984,89.831642 136.718811,89.127457 
	C136.703812,89.532944 136.440948,90.118965 135.850555,90.791969 
z"/>
<path fill="#FF713A" opacity="1.000000" stroke="none" 
	d="
M126.369675,100.980362 
	C126.412659,100.603745 126.764297,100.187195 127.378555,99.687180 
	C127.320229,100.049294 126.999283,100.494865 126.369675,100.980362 
z"/>
<path fill="#FF713A" opacity="1.000000" stroke="none" 
	d="
M75.768692,130.006226 
	C75.808449,130.269608 75.619453,130.539459 75.194160,130.896515 
	C75.151878,130.660049 75.345901,130.336395 75.768692,130.006226 
z"/>
<path fill="#FF733E" opacity="1.000000" stroke="none" 
	d="
M139.784454,85.762299 
	C139.733871,85.272675 140.042465,84.684334 140.613480,83.890755 
	C140.631821,84.344879 140.387726,85.004234 139.784454,85.762299 
z"/>
<path fill="#FF713A" opacity="1.000000" stroke="none" 
	d="
M127.931015,99.636444 
	C127.665794,99.276627 127.826996,98.996635 128.354218,98.711693 
	C128.466705,98.966850 128.345764,99.303360 127.931015,99.636444 
z"/>
<path fill="#FF713A" opacity="1.000000" stroke="none" 
	d="
M137.184967,88.858353 
	C137.112503,88.667061 137.276764,88.355331 137.693207,87.940201 
	C137.770844,88.137161 137.596283,88.437531 137.184967,88.858353 
z"/>
<path fill="#FFE1DA" opacity="1.000000" stroke="none" 
	d="
M106.313240,104.036896 
	C106.532272,103.459808 106.941078,102.888214 107.349884,102.316612 
	C107.384590,102.815331 107.419304,103.314049 107.166397,103.900375 
	C106.878777,103.987984 106.503006,104.042389 106.313240,104.036896 
z"/>
<path fill="#FF713A" opacity="1.000000" stroke="none" 
	d="
M126.222580,88.901825 
	C126.881584,88.848511 127.252304,88.935921 128.175095,89.181221 
	C126.959824,90.499367 125.192474,91.659622 123.461472,92.395569 
	C124.309975,90.995026 125.122139,90.018784 126.222580,88.901825 
z"/>
<path fill="#FF6D38" opacity="1.000000" stroke="none" 
	d="
M156.712646,50.686512 
	C154.559937,53.690575 152.119354,56.417797 149.321335,59.070679 
	C151.450851,56.134117 153.937820,53.271893 156.712646,50.686512 
z"/>
</svg>